<?xml version="1.0" standalone="no"?>
 <!DOCTYPE svg PUBLIC "-//W3C//DTD SVG 1.1//EN" 
 "http://www.w3.org/Graphics/SVG/1.1/DTD/svg11.dtd"> 
<svg
  xmlns:svg="http://www.w3.org/2000/svg"
  xmlns="http://www.w3.org/2000/svg"
  xmlns:xlink="http://www.w3.org/1999/xlink"
  version="1.1"
  width="297.0022mm" height="210.0072mm" viewBox="0.0000 0.0000 297.0022 210.0072">
<title>SVG Image created as board.svg date 2026/01/07 20:20:08 </title>
  <desc>Image generated by Eeschema-SVG </desc>
<g style="fill:#000000; fill-opacity:1.0000;stroke:#000000; stroke-opacity:1.0000;
stroke-linecap:round; stroke-linejoin:round;"
 transform="translate(0 0) scale(1 1)">
</g>
<g style="fill:#F5F4EF; fill-opacity:1.0000; 
stroke:#F5F4EF; stroke-width:0.0001; stroke-opacity:1; 
stroke-linecap:round; stroke-linejoin:round;">
<rect x="0.000000" y="0.000000" width="297.002200" height="210.007200" rx="0.000000" />
</g>
<g style="fill:none; 
stroke:#840000; stroke-width:0.1524; stroke-opacity:1; 
stroke-linecap:round; stroke-linejoin:round;">
<path d="M177.0022 166.0072
L285.0022 166.0072
L285.0022 198.0072
L177.0022 198.0072
L177.0022 166.0072
" />
<path d="M10.0000 10.0000
L287.0022 10.0000
L287.0022 200.0072
L10.0000 200.0072
L10.0000 10.0000
" />
<path d="M12.0000 12.0000
L285.0022 12.0000
L285.0022 198.0072
L12.0000 198.0072
L12.0000 12.0000
" />
<path d="M60.0000 12.0000
L60.0000 10.0000
" />
<path d="M110.0000 12.0000
L110.0000 10.0000
" />
<path d="M160.0000 12.0000
L160.0000 10.0000
" />
<path d="M210.0000 12.0000
L210.0000 10.0000
" />
<path d="M260.0000 12.0000
L260.0000 10.0000
" />
<text x="35.0000" y="11.6500"
textLength="1.4353" font-size="1.7333" lengthAdjust="spacingAndGlyphs"
text-anchor="start" opacity="0" stroke-opacity="0">1</text>
<g class="stroked-text"><desc>1</desc>
<path d="M36.0906 11.5935
L35.3478 11.5935
" />
<path d="M35.7192 11.5935
L35.7192 10.2935
" />
<path d="M35.7192 10.2935
L35.5954 10.4792
" />
<path d="M35.5954 10.4792
L35.4716 10.6030
" />
<path d="M35.4716 10.6030
L35.3478 10.6649
" />
</g><text x="85.0000" y="11.6500"
textLength="1.4353" font-size="1.7333" lengthAdjust="spacingAndGlyphs"
text-anchor="start" opacity="0" stroke-opacity="0">2</text>
<g class="stroked-text"><desc>2</desc>
<path d="M85.3478 10.4173
L85.4097 10.3554
" />
<path d="M85.4097 10.3554
L85.5335 10.2935
" />
<path d="M85.5335 10.2935
L85.8430 10.2935
" />
<path d="M85.8430 10.2935
L85.9668 10.3554
" />
<path d="M85.9668 10.3554
L86.0287 10.4173
" />
<path d="M86.0287 10.4173
L86.0906 10.5411
" />
<path d="M86.0906 10.5411
L86.0906 10.6649
" />
<path d="M86.0906 10.6649
L86.0287 10.8506
" />
<path d="M86.0287 10.8506
L85.2859 11.5935
" />
<path d="M85.2859 11.5935
L86.0906 11.5935
" />
</g><text x="135.0000" y="11.6500"
textLength="1.4353" font-size="1.7333" lengthAdjust="spacingAndGlyphs"
text-anchor="start" opacity="0" stroke-opacity="0">3</text>
<g class="stroked-text"><desc>3</desc>
<path d="M135.2859 10.2935
L136.0906 10.2935
" />
<path d="M136.0906 10.2935
L135.6573 10.7887
" />
<path d="M135.6573 10.7887
L135.8430 10.7887
" />
<path d="M135.8430 10.7887
L135.9668 10.8506
" />
<path d="M135.9668 10.8506
L136.0287 10.9125
" />
<path d="M136.0287 10.9125
L136.0906 11.0363
" />
<path d="M136.0906 11.0363
L136.0906 11.3458
" />
<path d="M136.0906 11.3458
L136.0287 11.4696
" />
<path d="M136.0287 11.4696
L135.9668 11.5316
" />
<path d="M135.9668 11.5316
L135.8430 11.5935
" />
<path d="M135.8430 11.5935
L135.4716 11.5935
" />
<path d="M135.4716 11.5935
L135.3478 11.5316
" />
<path d="M135.3478 11.5316
L135.2859 11.4696
" />
</g><text x="185.0000" y="11.6500"
textLength="1.4353" font-size="1.7333" lengthAdjust="spacingAndGlyphs"
text-anchor="start" opacity="0" stroke-opacity="0">4</text>
<g class="stroked-text"><desc>4</desc>
<path d="M185.9668 10.7268
L185.9668 11.5935
" />
<path d="M185.6573 10.2316
L185.3478 11.1601
" />
<path d="M185.3478 11.1601
L186.1525 11.1601
" />
</g><text x="235.0000" y="11.6500"
textLength="1.4353" font-size="1.7333" lengthAdjust="spacingAndGlyphs"
text-anchor="start" opacity="0" stroke-opacity="0">5</text>
<g class="stroked-text"><desc>5</desc>
<path d="M236.0287 10.2935
L235.4097 10.2935
" />
<path d="M235.4097 10.2935
L235.3478 10.9125
" />
<path d="M235.3478 10.9125
L235.4097 10.8506
" />
<path d="M235.4097 10.8506
L235.5335 10.7887
" />
<path d="M235.5335 10.7887
L235.8430 10.7887
" />
<path d="M235.8430 10.7887
L235.9668 10.8506
" />
<path d="M235.9668 10.8506
L236.0287 10.9125
" />
<path d="M236.0287 10.9125
L236.0906 11.0363
" />
<path d="M236.0906 11.0363
L236.0906 11.3458
" />
<path d="M236.0906 11.3458
L236.0287 11.4696
" />
<path d="M236.0287 11.4696
L235.9668 11.5316
" />
<path d="M235.9668 11.5316
L235.8430 11.5935
" />
<path d="M235.8430 11.5935
L235.5335 11.5935
" />
<path d="M235.5335 11.5935
L235.4097 11.5316
" />
<path d="M235.4097 11.5316
L235.3478 11.4696
" />
</g><text x="285.0000" y="11.6500"
textLength="1.4353" font-size="1.7333" lengthAdjust="spacingAndGlyphs"
text-anchor="start" opacity="0" stroke-opacity="0">6</text>
<g class="stroked-text"><desc>6</desc>
<path d="M285.9668 10.2935
L285.7192 10.2935
" />
<path d="M285.7192 10.2935
L285.5954 10.3554
" />
<path d="M285.5954 10.3554
L285.5335 10.4173
" />
<path d="M285.5335 10.4173
L285.4097 10.6030
" />
<path d="M285.4097 10.6030
L285.3478 10.8506
" />
<path d="M285.3478 10.8506
L285.3478 11.3458
" />
<path d="M285.3478 11.3458
L285.4097 11.4696
" />
<path d="M285.4097 11.4696
L285.4716 11.5316
" />
<path d="M285.4716 11.5316
L285.5954 11.5935
" />
<path d="M285.5954 11.5935
L285.8430 11.5935
" />
<path d="M285.8430 11.5935
L285.9668 11.5316
" />
<path d="M285.9668 11.5316
L286.0287 11.4696
" />
<path d="M286.0287 11.4696
L286.0906 11.3458
" />
<path d="M286.0906 11.3458
L286.0906 11.0363
" />
<path d="M286.0906 11.0363
L286.0287 10.9125
" />
<path d="M286.0287 10.9125
L285.9668 10.8506
" />
<path d="M285.9668 10.8506
L285.8430 10.7887
" />
<path d="M285.8430 10.7887
L285.5954 10.7887
" />
<path d="M285.5954 10.7887
L285.4716 10.8506
" />
<path d="M285.4716 10.8506
L285.4097 10.9125
" />
<path d="M285.4097 10.9125
L285.3478 11.0363
" />
</g><path d="M60.0000 198.0072
L60.0000 200.0072
" />
<path d="M110.0000 198.0072
L110.0000 200.0072
" />
<path d="M160.0000 198.0072
L160.0000 200.0072
" />
<path d="M210.0000 198.0072
L210.0000 200.0072
" />
<path d="M260.0000 198.0072
L260.0000 200.0072
" />
<text x="35.0000" y="199.6572"
textLength="1.4353" font-size="1.7333" lengthAdjust="spacingAndGlyphs"
text-anchor="start" opacity="0" stroke-opacity="0">1</text>
<g class="stroked-text"><desc>1</desc>
<path d="M36.0906 199.6007
L35.3478 199.6007
" />
<path d="M35.7192 199.6007
L35.7192 198.3007
" />
<path d="M35.7192 198.3007
L35.5954 198.4864
" />
<path d="M35.5954 198.4864
L35.4716 198.6102
" />
<path d="M35.4716 198.6102
L35.3478 198.6721
" />
</g><text x="85.0000" y="199.6572"
textLength="1.4353" font-size="1.7333" lengthAdjust="spacingAndGlyphs"
text-anchor="start" opacity="0" stroke-opacity="0">2</text>
<g class="stroked-text"><desc>2</desc>
<path d="M85.3478 198.4245
L85.4097 198.3626
" />
<path d="M85.4097 198.3626
L85.5335 198.3007
" />
<path d="M85.5335 198.3007
L85.8430 198.3007
" />
<path d="M85.8430 198.3007
L85.9668 198.3626
" />
<path d="M85.9668 198.3626
L86.0287 198.4245
" />
<path d="M86.0287 198.4245
L86.0906 198.5483
" />
<path d="M86.0906 198.5483
L86.0906 198.6721
" />
<path d="M86.0906 198.6721
L86.0287 198.8578
" />
<path d="M86.0287 198.8578
L85.2859 199.6007
" />
<path d="M85.2859 199.6007
L86.0906 199.6007
" />
</g><text x="135.0000" y="199.6572"
textLength="1.4353" font-size="1.7333" lengthAdjust="spacingAndGlyphs"
text-anchor="start" opacity="0" stroke-opacity="0">3</text>
<g class="stroked-text"><desc>3</desc>
<path d="M135.2859 198.3007
L136.0906 198.3007
" />
<path d="M136.0906 198.3007
L135.6573 198.7959
" />
<path d="M135.6573 198.7959
L135.8430 198.7959
" />
<path d="M135.8430 198.7959
L135.9668 198.8578
" />
<path d="M135.9668 198.8578
L136.0287 198.9197
" />
<path d="M136.0287 198.9197
L136.0906 199.0435
" />
<path d="M136.0906 199.0435
L136.0906 199.3530
" />
<path d="M136.0906 199.3530
L136.0287 199.4768
" />
<path d="M136.0287 199.4768
L135.9668 199.5388
" />
<path d="M135.9668 199.5388
L135.8430 199.6007
" />
<path d="M135.8430 199.6007
L135.4716 199.6007
" />
<path d="M135.4716 199.6007
L135.3478 199.5388
" />
<path d="M135.3478 199.5388
L135.2859 199.4768
" />
</g><text x="185.0000" y="199.6572"
textLength="1.4353" font-size="1.7333" lengthAdjust="spacingAndGlyphs"
text-anchor="start" opacity="0" stroke-opacity="0">4</text>
<g class="stroked-text"><desc>4</desc>
<path d="M185.9668 198.7340
L185.9668 199.6007
" />
<path d="M185.6573 198.2388
L185.3478 199.1673
" />
<path d="M185.3478 199.1673
L186.1525 199.1673
" />
</g><text x="235.0000" y="199.6572"
textLength="1.4353" font-size="1.7333" lengthAdjust="spacingAndGlyphs"
text-anchor="start" opacity="0" stroke-opacity="0">5</text>
<g class="stroked-text"><desc>5</desc>
<path d="M236.0287 198.3007
L235.4097 198.3007
" />
<path d="M235.4097 198.3007
L235.3478 198.9197
" />
<path d="M235.3478 198.9197
L235.4097 198.8578
" />
<path d="M235.4097 198.8578
L235.5335 198.7959
" />
<path d="M235.5335 198.7959
L235.8430 198.7959
" />
<path d="M235.8430 198.7959
L235.9668 198.8578
" />
<path d="M235.9668 198.8578
L236.0287 198.9197
" />
<path d="M236.0287 198.9197
L236.0906 199.0435
" />
<path d="M236.0906 199.0435
L236.0906 199.3530
" />
<path d="M236.0906 199.3530
L236.0287 199.4768
" />
<path d="M236.0287 199.4768
L235.9668 199.5388
" />
<path d="M235.9668 199.5388
L235.8430 199.6007
" />
<path d="M235.8430 199.6007
L235.5335 199.6007
" />
<path d="M235.5335 199.6007
L235.4097 199.5388
" />
<path d="M235.4097 199.5388
L235.3478 199.4768
" />
</g><text x="285.0000" y="199.6572"
textLength="1.4353" font-size="1.7333" lengthAdjust="spacingAndGlyphs"
text-anchor="start" opacity="0" stroke-opacity="0">6</text>
<g class="stroked-text"><desc>6</desc>
<path d="M285.9668 198.3007
L285.7192 198.3007
" />
<path d="M285.7192 198.3007
L285.5954 198.3626
" />
<path d="M285.5954 198.3626
L285.5335 198.4245
" />
<path d="M285.5335 198.4245
L285.4097 198.6102
" />
<path d="M285.4097 198.6102
L285.3478 198.8578
" />
<path d="M285.3478 198.8578
L285.3478 199.3530
" />
<path d="M285.3478 199.3530
L285.4097 199.4768
" />
<path d="M285.4097 199.4768
L285.4716 199.5388
" />
<path d="M285.4716 199.5388
L285.5954 199.6007
" />
<path d="M285.5954 199.6007
L285.8430 199.6007
" />
<path d="M285.8430 199.6007
L285.9668 199.5388
" />
<path d="M285.9668 199.5388
L286.0287 199.4768
" />
<path d="M286.0287 199.4768
L286.0906 199.3530
" />
<path d="M286.0906 199.3530
L286.0906 199.0435
" />
<path d="M286.0906 199.0435
L286.0287 198.9197
" />
<path d="M286.0287 198.9197
L285.9668 198.8578
" />
<path d="M285.9668 198.8578
L285.8430 198.7959
" />
<path d="M285.8430 198.7959
L285.5954 198.7959
" />
<path d="M285.5954 198.7959
L285.4716 198.8578
" />
<path d="M285.4716 198.8578
L285.4097 198.9197
" />
<path d="M285.4097 198.9197
L285.3478 199.0435
" />
</g><path d="M10.0000 60.0000
L12.0000 60.0000
" />
<path d="M10.0000 110.0000
L12.0000 110.0000
" />
<path d="M10.0000 160.0000
L12.0000 160.0000
" />
<text x="11.0000" y="35.6500"
textLength="1.3115" font-size="1.7333" lengthAdjust="spacingAndGlyphs"
text-anchor="middle" opacity="0" stroke-opacity="0">A</text>
<g class="stroked-text"><desc>A</desc>
<path d="M10.6905 35.2220
L11.3095 35.2220
" />
<path d="M10.5667 35.5935
L11.0000 34.2935
" />
<path d="M11.0000 34.2935
L11.4333 35.5935
" />
</g><text x="11.0000" y="85.6500"
textLength="1.4972" font-size="1.7333" lengthAdjust="spacingAndGlyphs"
text-anchor="middle" opacity="0" stroke-opacity="0">B</text>
<g class="stroked-text"><desc>B</desc>
<path d="M11.0928 84.9125
L11.2785 84.9744
" />
<path d="M11.2785 84.9744
L11.3404 85.0363
" />
<path d="M11.3404 85.0363
L11.4023 85.1601
" />
<path d="M11.4023 85.1601
L11.4023 85.3458
" />
<path d="M11.4023 85.3458
L11.3404 85.4696
" />
<path d="M11.3404 85.4696
L11.2785 85.5316
" />
<path d="M11.2785 85.5316
L11.1547 85.5935
" />
<path d="M11.1547 85.5935
L10.6595 85.5935
" />
<path d="M10.6595 85.5935
L10.6595 84.2935
" />
<path d="M10.6595 84.2935
L11.0928 84.2935
" />
<path d="M11.0928 84.2935
L11.2166 84.3554
" />
<path d="M11.2166 84.3554
L11.2785 84.4173
" />
<path d="M11.2785 84.4173
L11.3404 84.5411
" />
<path d="M11.3404 84.5411
L11.3404 84.6649
" />
<path d="M11.3404 84.6649
L11.2785 84.7887
" />
<path d="M11.2785 84.7887
L11.2166 84.8506
" />
<path d="M11.2166 84.8506
L11.0928 84.9125
" />
<path d="M11.0928 84.9125
L10.6595 84.9125
" />
</g><text x="11.0000" y="135.6500"
textLength="1.4972" font-size="1.7333" lengthAdjust="spacingAndGlyphs"
text-anchor="middle" opacity="0" stroke-opacity="0">C</text>
<g class="stroked-text"><desc>C</desc>
<path d="M11.4023 135.4696
L11.3404 135.5316
" />
<path d="M11.3404 135.5316
L11.1547 135.5935
" />
<path d="M11.1547 135.5935
L11.0309 135.5935
" />
<path d="M11.0309 135.5935
L10.8452 135.5316
" />
<path d="M10.8452 135.5316
L10.7214 135.4077
" />
<path d="M10.7214 135.4077
L10.6595 135.2839
" />
<path d="M10.6595 135.2839
L10.5976 135.0363
" />
<path d="M10.5976 135.0363
L10.5976 134.8506
" />
<path d="M10.5976 134.8506
L10.6595 134.6030
" />
<path d="M10.6595 134.6030
L10.7214 134.4792
" />
<path d="M10.7214 134.4792
L10.8452 134.3554
" />
<path d="M10.8452 134.3554
L11.0309 134.2935
" />
<path d="M11.0309 134.2935
L11.1547 134.2935
" />
<path d="M11.1547 134.2935
L11.3404 134.3554
" />
<path d="M11.3404 134.3554
L11.4023 134.4173
" />
</g><text x="11.0000" y="185.6500"
textLength="1.4972" font-size="1.7333" lengthAdjust="spacingAndGlyphs"
text-anchor="middle" opacity="0" stroke-opacity="0">D</text>
<g class="stroked-text"><desc>D</desc>
<path d="M10.6595 185.5935
L10.6595 184.2935
" />
<path d="M10.6595 184.2935
L10.9690 184.2935
" />
<path d="M10.9690 184.2935
L11.1547 184.3554
" />
<path d="M11.1547 184.3554
L11.2785 184.4792
" />
<path d="M11.2785 184.4792
L11.3404 184.6030
" />
<path d="M11.3404 184.6030
L11.4023 184.8506
" />
<path d="M11.4023 184.8506
L11.4023 185.0363
" />
<path d="M11.4023 185.0363
L11.3404 185.2839
" />
<path d="M11.3404 185.2839
L11.2785 185.4077
" />
<path d="M11.2785 185.4077
L11.1547 185.5316
" />
<path d="M11.1547 185.5316
L10.9690 185.5935
" />
<path d="M10.9690 185.5935
L10.6595 185.5935
" />
</g><path d="M287.0022 60.0000
L285.0022 60.0000
" />
<path d="M287.0022 110.0000
L285.0022 110.0000
" />
<path d="M287.0022 160.0000
L285.0022 160.0000
" />
<text x="286.0022" y="35.6500"
textLength="1.3115" font-size="1.7333" lengthAdjust="spacingAndGlyphs"
text-anchor="middle" opacity="0" stroke-opacity="0">A</text>
<g class="stroked-text"><desc>A</desc>
<path d="M285.6927 35.2220
L286.3117 35.2220
" />
<path d="M285.5689 35.5935
L286.0022 34.2935
" />
<path d="M286.0022 34.2935
L286.4355 35.5935
" />
</g><text x="286.0022" y="85.6500"
textLength="1.4972" font-size="1.7333" lengthAdjust="spacingAndGlyphs"
text-anchor="middle" opacity="0" stroke-opacity="0">B</text>
<g class="stroked-text"><desc>B</desc>
<path d="M286.0950 84.9125
L286.2807 84.9744
" />
<path d="M286.2807 84.9744
L286.3426 85.0363
" />
<path d="M286.3426 85.0363
L286.4045 85.1601
" />
<path d="M286.4045 85.1601
L286.4045 85.3458
" />
<path d="M286.4045 85.3458
L286.3426 85.4696
" />
<path d="M286.3426 85.4696
L286.2807 85.5316
" />
<path d="M286.2807 85.5316
L286.1569 85.5935
" />
<path d="M286.1569 85.5935
L285.6617 85.5935
" />
<path d="M285.6617 85.5935
L285.6617 84.2935
" />
<path d="M285.6617 84.2935
L286.0950 84.2935
" />
<path d="M286.0950 84.2935
L286.2188 84.3554
" />
<path d="M286.2188 84.3554
L286.2807 84.4173
" />
<path d="M286.2807 84.4173
L286.3426 84.5411
" />
<path d="M286.3426 84.5411
L286.3426 84.6649
" />
<path d="M286.3426 84.6649
L286.2807 84.7887
" />
<path d="M286.2807 84.7887
L286.2188 84.8506
" />
<path d="M286.2188 84.8506
L286.0950 84.9125
" />
<path d="M286.0950 84.9125
L285.6617 84.9125
" />
</g><text x="286.0022" y="135.6500"
textLength="1.4972" font-size="1.7333" lengthAdjust="spacingAndGlyphs"
text-anchor="middle" opacity="0" stroke-opacity="0">C</text>
<g class="stroked-text"><desc>C</desc>
<path d="M286.4045 135.4696
L286.3426 135.5316
" />
<path d="M286.3426 135.5316
L286.1569 135.5935
" />
<path d="M286.1569 135.5935
L286.0331 135.5935
" />
<path d="M286.0331 135.5935
L285.8474 135.5316
" />
<path d="M285.8474 135.5316
L285.7236 135.4077
" />
<path d="M285.7236 135.4077
L285.6617 135.2839
" />
<path d="M285.6617 135.2839
L285.5998 135.0363
" />
<path d="M285.5998 135.0363
L285.5998 134.8506
" />
<path d="M285.5998 134.8506
L285.6617 134.6030
" />
<path d="M285.6617 134.6030
L285.7236 134.4792
" />
<path d="M285.7236 134.4792
L285.8474 134.3554
" />
<path d="M285.8474 134.3554
L286.0331 134.2935
" />
<path d="M286.0331 134.2935
L286.1569 134.2935
" />
<path d="M286.1569 134.2935
L286.3426 134.3554
" />
<path d="M286.3426 134.3554
L286.4045 134.4173
" />
</g><text x="286.0022" y="185.6500"
textLength="1.4972" font-size="1.7333" lengthAdjust="spacingAndGlyphs"
text-anchor="middle" opacity="0" stroke-opacity="0">D</text>
<g class="stroked-text"><desc>D</desc>
<path d="M285.6617 185.5935
L285.6617 184.2935
" />
<path d="M285.6617 184.2935
L285.9712 184.2935
" />
<path d="M285.9712 184.2935
L286.1569 184.3554
" />
<path d="M286.1569 184.3554
L286.2807 184.4792
" />
<path d="M286.2807 184.4792
L286.3426 184.6030
" />
<path d="M286.3426 184.6030
L286.4045 184.8506
" />
<path d="M286.4045 184.8506
L286.4045 185.0363
" />
<path d="M286.4045 185.0363
L286.3426 185.2839
" />
<path d="M286.3426 185.2839
L286.2807 185.4077
" />
<path d="M286.2807 185.4077
L286.1569 185.5316
" />
<path d="M286.1569 185.5316
L285.9712 185.5935
" />
<path d="M285.9712 185.5935
L285.6617 185.5935
" />
</g><text x="200.0022" y="193.8572"
textLength="7.0143" font-size="2.0000" lengthAdjust="spacingAndGlyphs"
text-anchor="start" opacity="0" stroke-opacity="0">Date: </text>
<g class="stroked-text"><desc>Date: </desc>
<path d="M200.4595 193.7931
L200.4595 192.2931
" />
<path d="M200.4595 192.2931
L200.8166 192.2931
" />
<path d="M200.8166 192.2931
L201.0309 192.3645
" />
<path d="M201.0309 192.3645
L201.1738 192.5074
" />
<path d="M201.1738 192.5074
L201.2452 192.6502
" />
<path d="M201.2452 192.6502
L201.3166 192.9359
" />
<path d="M201.3166 192.9359
L201.3166 193.1502
" />
<path d="M201.3166 193.1502
L201.2452 193.4359
" />
<path d="M201.2452 193.4359
L201.1738 193.5788
" />
<path d="M201.1738 193.5788
L201.0309 193.7217
" />
<path d="M201.0309 193.7217
L200.8166 193.7931
" />
<path d="M200.8166 193.7931
L200.4595 193.7931
" />
<path d="M202.6024 193.7931
L202.6024 193.0074
" />
<path d="M202.6024 193.0074
L202.5309 192.8645
" />
<path d="M202.5309 192.8645
L202.3881 192.7931
" />
<path d="M202.3881 192.7931
L202.1024 192.7931
" />
<path d="M202.1024 192.7931
L201.9595 192.8645
" />
<path d="M202.6024 193.7217
L202.4595 193.7931
" />
<path d="M202.4595 193.7931
L202.1024 193.7931
" />
<path d="M202.1024 193.7931
L201.9595 193.7217
" />
<path d="M201.9595 193.7217
L201.8881 193.5788
" />
<path d="M201.8881 193.5788
L201.8881 193.4359
" />
<path d="M201.8881 193.4359
L201.9595 193.2931
" />
<path d="M201.9595 193.2931
L202.1024 193.2217
" />
<path d="M202.1024 193.2217
L202.4595 193.2217
" />
<path d="M202.4595 193.2217
L202.6024 193.1502
" />
<path d="M203.1023 192.7931
L203.6737 192.7931
" />
<path d="M203.3166 192.2931
L203.3166 193.5788
" />
<path d="M203.3166 193.5788
L203.3880 193.7217
" />
<path d="M203.3880 193.7217
L203.5309 193.7931
" />
<path d="M203.5309 193.7931
L203.6737 193.7931
" />
<path d="M204.7451 193.7217
L204.6023 193.7931
" />
<path d="M204.6023 193.7931
L204.3166 193.7931
" />
<path d="M204.3166 193.7931
L204.1737 193.7217
" />
<path d="M204.1737 193.7217
L204.1023 193.5788
" />
<path d="M204.1023 193.5788
L204.1023 193.0074
" />
<path d="M204.1023 193.0074
L204.1737 192.8645
" />
<path d="M204.1737 192.8645
L204.3166 192.7931
" />
<path d="M204.3166 192.7931
L204.6023 192.7931
" />
<path d="M204.6023 192.7931
L204.7451 192.8645
" />
<path d="M204.7451 192.8645
L204.8166 193.0074
" />
<path d="M204.8166 193.0074
L204.8166 193.1502
" />
<path d="M204.8166 193.1502
L204.1023 193.2931
" />
<path d="M205.4594 193.6502
L205.5308 193.7217
" />
<path d="M205.5308 193.7217
L205.4594 193.7931
" />
<path d="M205.4594 193.7931
L205.3880 193.7217
" />
<path d="M205.3880 193.7217
L205.4594 193.6502
" />
<path d="M205.4594 193.6502
L205.4594 193.7931
" />
<path d="M205.4594 192.8645
L205.5308 192.9359
" />
<path d="M205.5308 192.9359
L205.4594 193.0074
" />
<path d="M205.4594 193.0074
L205.3880 192.9359
" />
<path d="M205.3880 192.9359
L205.4594 192.8645
" />
<path d="M205.4594 192.8645
L205.4594 193.0074
" />
</g><path d="M177.0022 194.5072
L285.0022 194.5072
" />
<text x="178.0022" y="196.6572"
textLength="20.8716" font-size="2.0000" lengthAdjust="spacingAndGlyphs"
text-anchor="start" opacity="0" stroke-opacity="0">KiCad E.D.A. 9.0.7</text>
<g class="stroked-text"><desc>KiCad E.D.A. 9.0.7</desc>
<path d="M178.4595 196.5931
L178.4595 195.0931
" />
<path d="M179.3166 196.5931
L178.6738 195.7359
" />
<path d="M179.3166 195.0931
L178.4595 195.9502
" />
<path d="M179.9595 196.5931
L179.9595 195.5931
" />
<path d="M179.9595 195.0931
L179.8881 195.1645
" />
<path d="M179.8881 195.1645
L179.9595 195.2359
" />
<path d="M179.9595 195.2359
L180.0309 195.1645
" />
<path d="M180.0309 195.1645
L179.9595 195.0931
" />
<path d="M179.9595 195.0931
L179.9595 195.2359
" />
<path d="M181.5309 196.4502
L181.4595 196.5217
" />
<path d="M181.4595 196.5217
L181.2452 196.5931
" />
<path d="M181.2452 196.5931
L181.1024 196.5931
" />
<path d="M181.1024 196.5931
L180.8881 196.5217
" />
<path d="M180.8881 196.5217
L180.7452 196.3788
" />
<path d="M180.7452 196.3788
L180.6738 196.2359
" />
<path d="M180.6738 196.2359
L180.6024 195.9502
" />
<path d="M180.6024 195.9502
L180.6024 195.7359
" />
<path d="M180.6024 195.7359
L180.6738 195.4502
" />
<path d="M180.6738 195.4502
L180.7452 195.3074
" />
<path d="M180.7452 195.3074
L180.8881 195.1645
" />
<path d="M180.8881 195.1645
L181.1024 195.0931
" />
<path d="M181.1024 195.0931
L181.2452 195.0931
" />
<path d="M181.2452 195.0931
L181.4595 195.1645
" />
<path d="M181.4595 195.1645
L181.5309 195.2359
" />
<path d="M182.8167 196.5931
L182.8167 195.8074
" />
<path d="M182.8167 195.8074
L182.7452 195.6645
" />
<path d="M182.7452 195.6645
L182.6024 195.5931
" />
<path d="M182.6024 195.5931
L182.3167 195.5931
" />
<path d="M182.3167 195.5931
L182.1738 195.6645
" />
<path d="M182.8167 196.5217
L182.6738 196.5931
" />
<path d="M182.6738 196.5931
L182.3167 196.5931
" />
<path d="M182.3167 196.5931
L182.1738 196.5217
" />
<path d="M182.1738 196.5217
L182.1024 196.3788
" />
<path d="M182.1024 196.3788
L182.1024 196.2359
" />
<path d="M182.1024 196.2359
L182.1738 196.0931
" />
<path d="M182.1738 196.0931
L182.3167 196.0217
" />
<path d="M182.3167 196.0217
L182.6738 196.0217
" />
<path d="M182.6738 196.0217
L182.8167 195.9502
" />
<path d="M184.1738 196.5931
L184.1738 195.0931
" />
<path d="M184.1738 196.5217
L184.0309 196.5931
" />
<path d="M184.0309 196.5931
L183.7452 196.5931
" />
<path d="M183.7452 196.5931
L183.6023 196.5217
" />
<path d="M183.6023 196.5217
L183.5309 196.4502
" />
<path d="M183.5309 196.4502
L183.4595 196.3074
" />
<path d="M183.4595 196.3074
L183.4595 195.8788
" />
<path d="M183.4595 195.8788
L183.5309 195.7359
" />
<path d="M183.5309 195.7359
L183.6023 195.6645
" />
<path d="M183.6023 195.6645
L183.7452 195.5931
" />
<path d="M183.7452 195.5931
L184.0309 195.5931
" />
<path d="M184.0309 195.5931
L184.1738 195.6645
" />
<path d="M186.0309 195.8074
L186.5309 195.8074
" />
<path d="M186.7452 196.5931
L186.0309 196.5931
" />
<path d="M186.0309 196.5931
L186.0309 195.0931
" />
<path d="M186.0309 195.0931
L186.7452 195.0931
" />
<path d="M187.3880 196.4502
L187.4594 196.5217
" />
<path d="M187.4594 196.5217
L187.3880 196.5931
" />
<path d="M187.3880 196.5931
L187.3166 196.5217
" />
<path d="M187.3166 196.5217
L187.3880 196.4502
" />
<path d="M187.3880 196.4502
L187.3880 196.5931
" />
<path d="M188.1023 196.5931
L188.1023 195.0931
" />
<path d="M188.1023 195.0931
L188.4594 195.0931
" />
<path d="M188.4594 195.0931
L188.6737 195.1645
" />
<path d="M188.6737 195.1645
L188.8166 195.3074
" />
<path d="M188.8166 195.3074
L188.8880 195.4502
" />
<path d="M188.8880 195.4502
L188.9594 195.7359
" />
<path d="M188.9594 195.7359
L188.9594 195.9502
" />
<path d="M188.9594 195.9502
L188.8880 196.2359
" />
<path d="M188.8880 196.2359
L188.8166 196.3788
" />
<path d="M188.8166 196.3788
L188.6737 196.5217
" />
<path d="M188.6737 196.5217
L188.4594 196.5931
" />
<path d="M188.4594 196.5931
L188.1023 196.5931
" />
<path d="M189.6023 196.4502
L189.6737 196.5217
" />
<path d="M189.6737 196.5217
L189.6023 196.5931
" />
<path d="M189.6023 196.5931
L189.5309 196.5217
" />
<path d="M189.5309 196.5217
L189.6023 196.4502
" />
<path d="M189.6023 196.4502
L189.6023 196.5931
" />
<path d="M190.2452 196.1645
L190.9595 196.1645
" />
<path d="M190.1023 196.5931
L190.6023 195.0931
" />
<path d="M190.6023 195.0931
L191.1023 196.5931
" />
<path d="M191.6023 196.4502
L191.6737 196.5217
" />
<path d="M191.6737 196.5217
L191.6023 196.5931
" />
<path d="M191.6023 196.5931
L191.5309 196.5217
" />
<path d="M191.5309 196.5217
L191.6023 196.4502
" />
<path d="M191.6023 196.4502
L191.6023 196.5931
" />
<path d="M193.5309 196.5931
L193.8166 196.5931
" />
<path d="M193.8166 196.5931
L193.9595 196.5217
" />
<path d="M193.9595 196.5217
L194.0309 196.4502
" />
<path d="M194.0309 196.4502
L194.1738 196.2359
" />
<path d="M194.1738 196.2359
L194.2452 195.9502
" />
<path d="M194.2452 195.9502
L194.2452 195.3788
" />
<path d="M194.2452 195.3788
L194.1738 195.2359
" />
<path d="M194.1738 195.2359
L194.1024 195.1645
" />
<path d="M194.1024 195.1645
L193.9595 195.0931
" />
<path d="M193.9595 195.0931
L193.6738 195.0931
" />
<path d="M193.6738 195.0931
L193.5309 195.1645
" />
<path d="M193.5309 195.1645
L193.4595 195.2359
" />
<path d="M193.4595 195.2359
L193.3881 195.3788
" />
<path d="M193.3881 195.3788
L193.3881 195.7359
" />
<path d="M193.3881 195.7359
L193.4595 195.8788
" />
<path d="M193.4595 195.8788
L193.5309 195.9502
" />
<path d="M193.5309 195.9502
L193.6738 196.0217
" />
<path d="M193.6738 196.0217
L193.9595 196.0217
" />
<path d="M193.9595 196.0217
L194.1024 195.9502
" />
<path d="M194.1024 195.9502
L194.1738 195.8788
" />
<path d="M194.1738 195.8788
L194.2452 195.7359
" />
<path d="M194.8881 196.4502
L194.9595 196.5217
" />
<path d="M194.9595 196.5217
L194.8881 196.5931
" />
<path d="M194.8881 196.5931
L194.8167 196.5217
" />
<path d="M194.8167 196.5217
L194.8881 196.4502
" />
<path d="M194.8881 196.4502
L194.8881 196.5931
" />
<path d="M195.8881 195.0931
L196.0310 195.0931
" />
<path d="M196.0310 195.0931
L196.1738 195.1645
" />
<path d="M196.1738 195.1645
L196.2453 195.2359
" />
<path d="M196.2453 195.2359
L196.3167 195.3788
" />
<path d="M196.3167 195.3788
L196.3881 195.6645
" />
<path d="M196.3881 195.6645
L196.3881 196.0217
" />
<path d="M196.3881 196.0217
L196.3167 196.3074
" />
<path d="M196.3167 196.3074
L196.2453 196.4502
" />
<path d="M196.2453 196.4502
L196.1738 196.5217
" />
<path d="M196.1738 196.5217
L196.0310 196.5931
" />
<path d="M196.0310 196.5931
L195.8881 196.5931
" />
<path d="M195.8881 196.5931
L195.7453 196.5217
" />
<path d="M195.7453 196.5217
L195.6738 196.4502
" />
<path d="M195.6738 196.4502
L195.6024 196.3074
" />
<path d="M195.6024 196.3074
L195.5310 196.0217
" />
<path d="M195.5310 196.0217
L195.5310 195.6645
" />
<path d="M195.5310 195.6645
L195.6024 195.3788
" />
<path d="M195.6024 195.3788
L195.6738 195.2359
" />
<path d="M195.6738 195.2359
L195.7453 195.1645
" />
<path d="M195.7453 195.1645
L195.8881 195.0931
" />
<path d="M197.0310 196.4502
L197.1024 196.5217
" />
<path d="M197.1024 196.5217
L197.0310 196.5931
" />
<path d="M197.0310 196.5931
L196.9596 196.5217
" />
<path d="M196.9596 196.5217
L197.0310 196.4502
" />
<path d="M197.0310 196.4502
L197.0310 196.5931
" />
<path d="M197.6024 195.0931
L198.6024 195.0931
" />
<path d="M198.6024 195.0931
L197.9596 196.5931
" />
</g><path d="M177.0022 191.5072
L285.0022 191.5072
" />
</g>
<g style="fill:none; 
stroke:#840000; stroke-width:0.3000; stroke-opacity:1; 
stroke-linecap:round; stroke-linejoin:round;">
<text x="263.0022" y="193.8572"
textLength="6.3858" font-size="2.0000" lengthAdjust="spacingAndGlyphs"
text-anchor="start" opacity="0" stroke-opacity="0">Rev: </text>
<g class="stroked-text"><desc>Rev: </desc>
<path d="M264.4137 193.7855
L263.9137 193.0712
" />
<path d="M263.5566 193.7855
L263.5566 192.2855
" />
<path d="M263.5566 192.2855
L264.1280 192.2855
" />
<path d="M264.1280 192.2855
L264.2709 192.3569
" />
<path d="M264.2709 192.3569
L264.3423 192.4283
" />
<path d="M264.3423 192.4283
L264.4137 192.5712
" />
<path d="M264.4137 192.5712
L264.4137 192.7855
" />
<path d="M264.4137 192.7855
L264.3423 192.9283
" />
<path d="M264.3423 192.9283
L264.2709 192.9998
" />
<path d="M264.2709 192.9998
L264.1280 193.0712
" />
<path d="M264.1280 193.0712
L263.5566 193.0712
" />
<path d="M265.6280 193.7141
L265.4852 193.7855
" />
<path d="M265.4852 193.7855
L265.1995 193.7855
" />
<path d="M265.1995 193.7855
L265.0566 193.7141
" />
<path d="M265.0566 193.7141
L264.9852 193.5712
" />
<path d="M264.9852 193.5712
L264.9852 192.9998
" />
<path d="M264.9852 192.9998
L265.0566 192.8569
" />
<path d="M265.0566 192.8569
L265.1995 192.7855
" />
<path d="M265.1995 192.7855
L265.4852 192.7855
" />
<path d="M265.4852 192.7855
L265.6280 192.8569
" />
<path d="M265.6280 192.8569
L265.6995 192.9998
" />
<path d="M265.6995 192.9998
L265.6995 193.1426
" />
<path d="M265.6995 193.1426
L264.9852 193.2855
" />
<path d="M266.1994 192.7855
L266.5566 193.7855
" />
<path d="M266.5566 193.7855
L266.9137 192.7855
" />
<path d="M267.4852 193.6426
L267.5566 193.7141
" />
<path d="M267.5566 193.7141
L267.4852 193.7855
" />
<path d="M267.4852 193.7855
L267.4138 193.7141
" />
<path d="M267.4138 193.7141
L267.4852 193.6426
" />
<path d="M267.4852 193.6426
L267.4852 193.7855
" />
<path d="M267.4852 192.8569
L267.5566 192.9283
" />
<path d="M267.5566 192.9283
L267.4852 192.9998
" />
<path d="M267.4852 192.9998
L267.4138 192.9283
" />
<path d="M267.4138 192.9283
L267.4852 192.8569
" />
<path d="M267.4852 192.8569
L267.4852 192.9998
" />
</g></g>
<g style="fill:none; 
stroke:#840000; stroke-width:0.1524; stroke-opacity:1; 
stroke-linecap:round; stroke-linejoin:round;">
<text x="178.0022" y="193.8572"
textLength="9.3716" font-size="2.0000" lengthAdjust="spacingAndGlyphs"
text-anchor="start" opacity="0" stroke-opacity="0">Size: A4</text>
<g class="stroked-text"><desc>Size: A4</desc>
<path d="M178.3881 193.7217
L178.6024 193.7931
" />
<path d="M178.6024 193.7931
L178.9595 193.7931
" />
<path d="M178.9595 193.7931
L179.1024 193.7217
" />
<path d="M179.1024 193.7217
L179.1738 193.6502
" />
<path d="M179.1738 193.6502
L179.2452 193.5074
" />
<path d="M179.2452 193.5074
L179.2452 193.3645
" />
<path d="M179.2452 193.3645
L179.1738 193.2217
" />
<path d="M179.1738 193.2217
L179.1024 193.1502
" />
<path d="M179.1024 193.1502
L178.9595 193.0788
" />
<path d="M178.9595 193.0788
L178.6738 193.0074
" />
<path d="M178.6738 193.0074
L178.5309 192.9359
" />
<path d="M178.5309 192.9359
L178.4595 192.8645
" />
<path d="M178.4595 192.8645
L178.3881 192.7217
" />
<path d="M178.3881 192.7217
L178.3881 192.5788
" />
<path d="M178.3881 192.5788
L178.4595 192.4359
" />
<path d="M178.4595 192.4359
L178.5309 192.3645
" />
<path d="M178.5309 192.3645
L178.6738 192.2931
" />
<path d="M178.6738 192.2931
L179.0309 192.2931
" />
<path d="M179.0309 192.2931
L179.2452 192.3645
" />
<path d="M179.8881 193.7931
L179.8881 192.7931
" />
<path d="M179.8881 192.2931
L179.8167 192.3645
" />
<path d="M179.8167 192.3645
L179.8881 192.4359
" />
<path d="M179.8881 192.4359
L179.9595 192.3645
" />
<path d="M179.9595 192.3645
L179.8881 192.2931
" />
<path d="M179.8881 192.2931
L179.8881 192.4359
" />
<path d="M180.4595 192.7931
L181.2453 192.7931
" />
<path d="M181.2453 192.7931
L180.4595 193.7931
" />
<path d="M180.4595 193.7931
L181.2453 193.7931
" />
<path d="M182.3881 193.7217
L182.2453 193.7931
" />
<path d="M182.2453 193.7931
L181.9596 193.7931
" />
<path d="M181.9596 193.7931
L181.8167 193.7217
" />
<path d="M181.8167 193.7217
L181.7453 193.5788
" />
<path d="M181.7453 193.5788
L181.7453 193.0074
" />
<path d="M181.7453 193.0074
L181.8167 192.8645
" />
<path d="M181.8167 192.8645
L181.9596 192.7931
" />
<path d="M181.9596 192.7931
L182.2453 192.7931
" />
<path d="M182.2453 192.7931
L182.3881 192.8645
" />
<path d="M182.3881 192.8645
L182.4596 193.0074
" />
<path d="M182.4596 193.0074
L182.4596 193.1502
" />
<path d="M182.4596 193.1502
L181.7453 193.2931
" />
<path d="M183.1024 193.6502
L183.1738 193.7217
" />
<path d="M183.1738 193.7217
L183.1024 193.7931
" />
<path d="M183.1024 193.7931
L183.0310 193.7217
" />
<path d="M183.0310 193.7217
L183.1024 193.6502
" />
<path d="M183.1024 193.6502
L183.1024 193.7931
" />
<path d="M183.1024 192.8645
L183.1738 192.9359
" />
<path d="M183.1738 192.9359
L183.1024 193.0074
" />
<path d="M183.1024 193.0074
L183.0310 192.9359
" />
<path d="M183.0310 192.9359
L183.1024 192.8645
" />
<path d="M183.1024 192.8645
L183.1024 193.0074
" />
<path d="M184.8882 193.3645
L185.6025 193.3645
" />
<path d="M184.7453 193.7931
L185.2453 192.2931
" />
<path d="M185.2453 192.2931
L185.7453 193.7931
" />
<path d="M186.8882 192.7931
L186.8882 193.7931
" />
<path d="M186.5310 192.2217
L186.1739 193.2931
" />
<path d="M186.1739 193.2931
L187.1024 193.2931
" />
</g><text x="263.0022" y="196.6572"
textLength="8.5144" font-size="2.0000" lengthAdjust="spacingAndGlyphs"
text-anchor="start" opacity="0" stroke-opacity="0">Id: 1/1</text>
<g class="stroked-text"><desc>Id: 1/1</desc>
<path d="M263.4595 196.5931
L263.4595 195.0931
" />
<path d="M264.8167 196.5931
L264.8167 195.0931
" />
<path d="M264.8167 196.5217
L264.6738 196.5931
" />
<path d="M264.6738 196.5931
L264.3881 196.5931
" />
<path d="M264.3881 196.5931
L264.2452 196.5217
" />
<path d="M264.2452 196.5217
L264.1738 196.4502
" />
<path d="M264.1738 196.4502
L264.1024 196.3074
" />
<path d="M264.1024 196.3074
L264.1024 195.8788
" />
<path d="M264.1024 195.8788
L264.1738 195.7359
" />
<path d="M264.1738 195.7359
L264.2452 195.6645
" />
<path d="M264.2452 195.6645
L264.3881 195.5931
" />
<path d="M264.3881 195.5931
L264.6738 195.5931
" />
<path d="M264.6738 195.5931
L264.8167 195.6645
" />
<path d="M265.5309 196.4502
L265.6023 196.5217
" />
<path d="M265.6023 196.5217
L265.5309 196.5931
" />
<path d="M265.5309 196.5931
L265.4595 196.5217
" />
<path d="M265.4595 196.5217
L265.5309 196.4502
" />
<path d="M265.5309 196.4502
L265.5309 196.5931
" />
<path d="M265.5309 195.6645
L265.6023 195.7359
" />
<path d="M265.6023 195.7359
L265.5309 195.8074
" />
<path d="M265.5309 195.8074
L265.4595 195.7359
" />
<path d="M265.4595 195.7359
L265.5309 195.6645
" />
<path d="M265.5309 195.6645
L265.5309 195.8074
" />
<path d="M268.1738 196.5931
L267.3167 196.5931
" />
<path d="M267.7452 196.5931
L267.7452 195.0931
" />
<path d="M267.7452 195.0931
L267.6024 195.3074
" />
<path d="M267.6024 195.3074
L267.4595 195.4502
" />
<path d="M267.4595 195.4502
L267.3167 195.5217
" />
<path d="M269.8881 195.0217
L268.6024 196.9502
" />
<path d="M271.1738 196.5931
L270.3167 196.5931
" />
<path d="M270.7452 196.5931
L270.7452 195.0931
" />
<path d="M270.7452 195.0931
L270.6024 195.3074
" />
<path d="M270.6024 195.3074
L270.4595 195.4502
" />
<path d="M270.4595 195.4502
L270.3167 195.5217
" />
</g><path d="M177.0022 187.5072
L285.0022 187.5072
" />
</g>
<g style="fill:none; 
stroke:#840000; stroke-width:0.4000; stroke-opacity:1; 
stroke-linecap:round; stroke-linejoin:round;">
<text x="178.0022" y="190.3072"
textLength="9.6572" font-size="2.6666" lengthAdjust="spacingAndGlyphs"
text-anchor="start" opacity="0" stroke-opacity="0">Title: </text>
<g class="stroked-text"><desc>Title: </desc>
<path d="M178.6938 188.2116
L179.8367 188.2116
" />
<path d="M179.0153 190.2116
L179.2653 188.2116
" />
<path d="M180.2533 190.2116
L180.4200 188.8783
" />
<path d="M180.5033 188.2116
L180.3962 188.3068
" />
<path d="M180.3962 188.3068
L180.4795 188.4021
" />
<path d="M180.4795 188.4021
L180.5867 188.3068
" />
<path d="M180.5867 188.3068
L180.5033 188.2116
" />
<path d="M180.5033 188.2116
L180.4795 188.4021
" />
<path d="M181.0867 188.8783
L181.8486 188.8783
" />
<path d="M181.4557 188.2116
L181.2415 189.9259
" />
<path d="M181.2415 189.9259
L181.3129 190.1164
" />
<path d="M181.3129 190.1164
L181.4915 190.2116
" />
<path d="M181.4915 190.2116
L181.6819 190.2116
" />
<path d="M182.6344 190.2116
L182.4558 190.1164
" />
<path d="M182.4558 190.1164
L182.3844 189.9259
" />
<path d="M182.3844 189.9259
L182.5986 188.2116
" />
<path d="M184.1700 190.1164
L183.9677 190.2116
" />
<path d="M183.9677 190.2116
L183.5867 190.2116
" />
<path d="M183.5867 190.2116
L183.4081 190.1164
" />
<path d="M183.4081 190.1164
L183.3367 189.9259
" />
<path d="M183.3367 189.9259
L183.4320 189.1640
" />
<path d="M183.4320 189.1640
L183.5510 188.9735
" />
<path d="M183.5510 188.9735
L183.7534 188.8783
" />
<path d="M183.7534 188.8783
L184.1343 188.8783
" />
<path d="M184.1343 188.8783
L184.3129 188.9735
" />
<path d="M184.3129 188.9735
L184.3843 189.1640
" />
<path d="M184.3843 189.1640
L184.3605 189.3544
" />
<path d="M184.3605 189.3544
L183.3843 189.5449
" />
<path d="M185.1343 190.0211
L185.2177 190.1164
" />
<path d="M185.2177 190.1164
L185.1105 190.2116
" />
<path d="M185.1105 190.2116
L185.0272 190.1164
" />
<path d="M185.0272 190.1164
L185.1343 190.0211
" />
<path d="M185.1343 190.0211
L185.1105 190.2116
" />
<path d="M185.2653 188.9735
L185.3486 189.0687
" />
<path d="M185.3486 189.0687
L185.2415 189.1640
" />
<path d="M185.2415 189.1640
L185.1582 189.0687
" />
<path d="M185.1582 189.0687
L185.2653 188.9735
" />
<path d="M185.2653 188.9735
L185.2415 189.1640
" />
</g></g>
<g style="fill:none; 
stroke:#840000; stroke-width:0.1524; stroke-opacity:1; 
stroke-linecap:round; stroke-linejoin:round;">
<text x="178.0022" y="186.4572"
textLength="24.0856" font-size="2.0000" lengthAdjust="spacingAndGlyphs"
text-anchor="start" opacity="0" stroke-opacity="0">File: board.kicad_sch</text>
<g class="stroked-text"><desc>File: board.kicad_sch</desc>
<path d="M178.9595 185.6074
L178.4595 185.6074
" />
<path d="M178.4595 186.3931
L178.4595 184.8931
" />
<path d="M178.4595 184.8931
L179.1738 184.8931
" />
<path d="M179.7452 186.3931
L179.7452 185.3931
" />
<path d="M179.7452 184.8931
L179.6738 184.9645
" />
<path d="M179.6738 184.9645
L179.7452 185.0359
" />
<path d="M179.7452 185.0359
L179.8166 184.9645
" />
<path d="M179.8166 184.9645
L179.7452 184.8931
" />
<path d="M179.7452 184.8931
L179.7452 185.0359
" />
<path d="M180.6738 186.3931
L180.5309 186.3217
" />
<path d="M180.5309 186.3217
L180.4595 186.1788
" />
<path d="M180.4595 186.1788
L180.4595 184.8931
" />
<path d="M181.8166 186.3217
L181.6738 186.3931
" />
<path d="M181.6738 186.3931
L181.3881 186.3931
" />
<path d="M181.3881 186.3931
L181.2452 186.3217
" />
<path d="M181.2452 186.3217
L181.1738 186.1788
" />
<path d="M181.1738 186.1788
L181.1738 185.6074
" />
<path d="M181.1738 185.6074
L181.2452 185.4645
" />
<path d="M181.2452 185.4645
L181.3881 185.3931
" />
<path d="M181.3881 185.3931
L181.6738 185.3931
" />
<path d="M181.6738 185.3931
L181.8166 185.4645
" />
<path d="M181.8166 185.4645
L181.8881 185.6074
" />
<path d="M181.8881 185.6074
L181.8881 185.7502
" />
<path d="M181.8881 185.7502
L181.1738 185.8931
" />
<path d="M182.5309 186.2502
L182.6023 186.3217
" />
<path d="M182.6023 186.3217
L182.5309 186.3931
" />
<path d="M182.5309 186.3931
L182.4595 186.3217
" />
<path d="M182.4595 186.3217
L182.5309 186.2502
" />
<path d="M182.5309 186.2502
L182.5309 186.3931
" />
<path d="M182.5309 185.4645
L182.6023 185.5359
" />
<path d="M182.6023 185.5359
L182.5309 185.6074
" />
<path d="M182.5309 185.6074
L182.4595 185.5359
" />
<path d="M182.4595 185.5359
L182.5309 185.4645
" />
<path d="M182.5309 185.4645
L182.5309 185.6074
" />
<path d="M184.3881 186.3931
L184.3881 184.8931
" />
<path d="M184.3881 185.4645
L184.5310 185.3931
" />
<path d="M184.5310 185.3931
L184.8167 185.3931
" />
<path d="M184.8167 185.3931
L184.9595 185.4645
" />
<path d="M184.9595 185.4645
L185.0310 185.5359
" />
<path d="M185.0310 185.5359
L185.1024 185.6788
" />
<path d="M185.1024 185.6788
L185.1024 186.1074
" />
<path d="M185.1024 186.1074
L185.0310 186.2502
" />
<path d="M185.0310 186.2502
L184.9595 186.3217
" />
<path d="M184.9595 186.3217
L184.8167 186.3931
" />
<path d="M184.8167 186.3931
L184.5310 186.3931
" />
<path d="M184.5310 186.3931
L184.3881 186.3217
" />
<path d="M185.9595 186.3931
L185.8166 186.3217
" />
<path d="M185.8166 186.3217
L185.7452 186.2502
" />
<path d="M185.7452 186.2502
L185.6738 186.1074
" />
<path d="M185.6738 186.1074
L185.6738 185.6788
" />
<path d="M185.6738 185.6788
L185.7452 185.5359
" />
<path d="M185.7452 185.5359
L185.8166 185.4645
" />
<path d="M185.8166 185.4645
L185.9595 185.3931
" />
<path d="M185.9595 185.3931
L186.1738 185.3931
" />
<path d="M186.1738 185.3931
L186.3166 185.4645
" />
<path d="M186.3166 185.4645
L186.3881 185.5359
" />
<path d="M186.3881 185.5359
L186.4595 185.6788
" />
<path d="M186.4595 185.6788
L186.4595 186.1074
" />
<path d="M186.4595 186.1074
L186.3881 186.2502
" />
<path d="M186.3881 186.2502
L186.3166 186.3217
" />
<path d="M186.3166 186.3217
L186.1738 186.3931
" />
<path d="M186.1738 186.3931
L185.9595 186.3931
" />
<path d="M187.7452 186.3931
L187.7452 185.6074
" />
<path d="M187.7452 185.6074
L187.6737 185.4645
" />
<path d="M187.6737 185.4645
L187.5309 185.3931
" />
<path d="M187.5309 185.3931
L187.2452 185.3931
" />
<path d="M187.2452 185.3931
L187.1023 185.4645
" />
<path d="M187.7452 186.3217
L187.6023 186.3931
" />
<path d="M187.6023 186.3931
L187.2452 186.3931
" />
<path d="M187.2452 186.3931
L187.1023 186.3217
" />
<path d="M187.1023 186.3217
L187.0309 186.1788
" />
<path d="M187.0309 186.1788
L187.0309 186.0359
" />
<path d="M187.0309 186.0359
L187.1023 185.8931
" />
<path d="M187.1023 185.8931
L187.2452 185.8217
" />
<path d="M187.2452 185.8217
L187.6023 185.8217
" />
<path d="M187.6023 185.8217
L187.7452 185.7502
" />
<path d="M188.4594 186.3931
L188.4594 185.3931
" />
<path d="M188.4594 185.6788
L188.5308 185.5359
" />
<path d="M188.5308 185.5359
L188.6023 185.4645
" />
<path d="M188.6023 185.4645
L188.7451 185.3931
" />
<path d="M188.7451 185.3931
L188.8880 185.3931
" />
<path d="M190.0309 186.3931
L190.0309 184.8931
" />
<path d="M190.0309 186.3217
L189.8880 186.3931
" />
<path d="M189.8880 186.3931
L189.6023 186.3931
" />
<path d="M189.6023 186.3931
L189.4594 186.3217
" />
<path d="M189.4594 186.3217
L189.3880 186.2502
" />
<path d="M189.3880 186.2502
L189.3166 186.1074
" />
<path d="M189.3166 186.1074
L189.3166 185.6788
" />
<path d="M189.3166 185.6788
L189.3880 185.5359
" />
<path d="M189.3880 185.5359
L189.4594 185.4645
" />
<path d="M189.4594 185.4645
L189.6023 185.3931
" />
<path d="M189.6023 185.3931
L189.8880 185.3931
" />
<path d="M189.8880 185.3931
L190.0309 185.4645
" />
<path d="M190.7451 186.2502
L190.8165 186.3217
" />
<path d="M190.8165 186.3217
L190.7451 186.3931
" />
<path d="M190.7451 186.3931
L190.6737 186.3217
" />
<path d="M190.6737 186.3217
L190.7451 186.2502
" />
<path d="M190.7451 186.2502
L190.7451 186.3931
" />
<path d="M191.4594 186.3931
L191.4594 184.8931
" />
<path d="M191.6023 185.8217
L192.0308 186.3931
" />
<path d="M192.0308 185.3931
L191.4594 185.9645
" />
<path d="M192.6737 186.3931
L192.6737 185.3931
" />
<path d="M192.6737 184.8931
L192.6023 184.9645
" />
<path d="M192.6023 184.9645
L192.6737 185.0359
" />
<path d="M192.6737 185.0359
L192.7451 184.9645
" />
<path d="M192.7451 184.9645
L192.6737 184.8931
" />
<path d="M192.6737 184.8931
L192.6737 185.0359
" />
<path d="M194.0309 186.3217
L193.8880 186.3931
" />
<path d="M193.8880 186.3931
L193.6023 186.3931
" />
<path d="M193.6023 186.3931
L193.4594 186.3217
" />
<path d="M193.4594 186.3217
L193.3880 186.2502
" />
<path d="M193.3880 186.2502
L193.3166 186.1074
" />
<path d="M193.3166 186.1074
L193.3166 185.6788
" />
<path d="M193.3166 185.6788
L193.3880 185.5359
" />
<path d="M193.3880 185.5359
L193.4594 185.4645
" />
<path d="M193.4594 185.4645
L193.6023 185.3931
" />
<path d="M193.6023 185.3931
L193.8880 185.3931
" />
<path d="M193.8880 185.3931
L194.0309 185.4645
" />
<path d="M195.3166 186.3931
L195.3166 185.6074
" />
<path d="M195.3166 185.6074
L195.2451 185.4645
" />
<path d="M195.2451 185.4645
L195.1023 185.3931
" />
<path d="M195.1023 185.3931
L194.8166 185.3931
" />
<path d="M194.8166 185.3931
L194.6737 185.4645
" />
<path d="M195.3166 186.3217
L195.1737 186.3931
" />
<path d="M195.1737 186.3931
L194.8166 186.3931
" />
<path d="M194.8166 186.3931
L194.6737 186.3217
" />
<path d="M194.6737 186.3217
L194.6023 186.1788
" />
<path d="M194.6023 186.1788
L194.6023 186.0359
" />
<path d="M194.6023 186.0359
L194.6737 185.8931
" />
<path d="M194.6737 185.8931
L194.8166 185.8217
" />
<path d="M194.8166 185.8217
L195.1737 185.8217
" />
<path d="M195.1737 185.8217
L195.3166 185.7502
" />
<path d="M196.6737 186.3931
L196.6737 184.8931
" />
<path d="M196.6737 186.3217
L196.5308 186.3931
" />
<path d="M196.5308 186.3931
L196.2451 186.3931
" />
<path d="M196.2451 186.3931
L196.1022 186.3217
" />
<path d="M196.1022 186.3217
L196.0308 186.2502
" />
<path d="M196.0308 186.2502
L195.9594 186.1074
" />
<path d="M195.9594 186.1074
L195.9594 185.6788
" />
<path d="M195.9594 185.6788
L196.0308 185.5359
" />
<path d="M196.0308 185.5359
L196.1022 185.4645
" />
<path d="M196.1022 185.4645
L196.2451 185.3931
" />
<path d="M196.2451 185.3931
L196.5308 185.3931
" />
<path d="M196.5308 185.3931
L196.6737 185.4645
" />
<path d="M197.0308 186.5359
L198.1736 186.5359
" />
<path d="M198.4594 186.3217
L198.6022 186.3931
" />
<path d="M198.6022 186.3931
L198.8879 186.3931
" />
<path d="M198.8879 186.3931
L199.0308 186.3217
" />
<path d="M199.0308 186.3217
L199.1022 186.1788
" />
<path d="M199.1022 186.1788
L199.1022 186.1074
" />
<path d="M199.1022 186.1074
L199.0308 185.9645
" />
<path d="M199.0308 185.9645
L198.8879 185.8931
" />
<path d="M198.8879 185.8931
L198.6737 185.8931
" />
<path d="M198.6737 185.8931
L198.5308 185.8217
" />
<path d="M198.5308 185.8217
L198.4594 185.6788
" />
<path d="M198.4594 185.6788
L198.4594 185.6074
" />
<path d="M198.4594 185.6074
L198.5308 185.4645
" />
<path d="M198.5308 185.4645
L198.6737 185.3931
" />
<path d="M198.6737 185.3931
L198.8879 185.3931
" />
<path d="M198.8879 185.3931
L199.0308 185.4645
" />
<path d="M200.3880 186.3217
L200.2451 186.3931
" />
<path d="M200.2451 186.3931
L199.9594 186.3931
" />
<path d="M199.9594 186.3931
L199.8165 186.3217
" />
<path d="M199.8165 186.3217
L199.7451 186.2502
" />
<path d="M199.7451 186.2502
L199.6737 186.1074
" />
<path d="M199.6737 186.1074
L199.6737 185.6788
" />
<path d="M199.6737 185.6788
L199.7451 185.5359
" />
<path d="M199.7451 185.5359
L199.8165 185.4645
" />
<path d="M199.8165 185.4645
L199.9594 185.3931
" />
<path d="M199.9594 185.3931
L200.2451 185.3931
" />
<path d="M200.2451 185.3931
L200.3880 185.4645
" />
<path d="M201.0308 186.3931
L201.0308 184.8931
" />
<path d="M201.6737 186.3931
L201.6737 185.6074
" />
<path d="M201.6737 185.6074
L201.6022 185.4645
" />
<path d="M201.6022 185.4645
L201.4594 185.3931
" />
<path d="M201.4594 185.3931
L201.2451 185.3931
" />
<path d="M201.2451 185.3931
L201.1022 185.4645
" />
<path d="M201.1022 185.4645
L201.0308 185.5359
" />
</g><path d="M177.0022 181.5072
L285.0022 181.5072
" />
<text x="178.0022" y="183.7572"
textLength="9.8000" font-size="2.0000" lengthAdjust="spacingAndGlyphs"
text-anchor="start" opacity="0" stroke-opacity="0">Sheet: /</text>
<g class="stroked-text"><desc>Sheet: /</desc>
<path d="M178.3881 183.6217
L178.6024 183.6931
" />
<path d="M178.6024 183.6931
L178.9595 183.6931
" />
<path d="M178.9595 183.6931
L179.1024 183.6217
" />
<path d="M179.1024 183.6217
L179.1738 183.5502
" />
<path d="M179.1738 183.5502
L179.2452 183.4074
" />
<path d="M179.2452 183.4074
L179.2452 183.2645
" />
<path d="M179.2452 183.2645
L179.1738 183.1217
" />
<path d="M179.1738 183.1217
L179.1024 183.0502
" />
<path d="M179.1024 183.0502
L178.9595 182.9788
" />
<path d="M178.9595 182.9788
L178.6738 182.9074
" />
<path d="M178.6738 182.9074
L178.5309 182.8359
" />
<path d="M178.5309 182.8359
L178.4595 182.7645
" />
<path d="M178.4595 182.7645
L178.3881 182.6217
" />
<path d="M178.3881 182.6217
L178.3881 182.4788
" />
<path d="M178.3881 182.4788
L178.4595 182.3359
" />
<path d="M178.4595 182.3359
L178.5309 182.2645
" />
<path d="M178.5309 182.2645
L178.6738 182.1931
" />
<path d="M178.6738 182.1931
L179.0309 182.1931
" />
<path d="M179.0309 182.1931
L179.2452 182.2645
" />
<path d="M179.8881 183.6931
L179.8881 182.1931
" />
<path d="M180.5310 183.6931
L180.5310 182.9074
" />
<path d="M180.5310 182.9074
L180.4595 182.7645
" />
<path d="M180.4595 182.7645
L180.3167 182.6931
" />
<path d="M180.3167 182.6931
L180.1024 182.6931
" />
<path d="M180.1024 182.6931
L179.9595 182.7645
" />
<path d="M179.9595 182.7645
L179.8881 182.8359
" />
<path d="M181.8166 183.6217
L181.6738 183.6931
" />
<path d="M181.6738 183.6931
L181.3881 183.6931
" />
<path d="M181.3881 183.6931
L181.2452 183.6217
" />
<path d="M181.2452 183.6217
L181.1738 183.4788
" />
<path d="M181.1738 183.4788
L181.1738 182.9074
" />
<path d="M181.1738 182.9074
L181.2452 182.7645
" />
<path d="M181.2452 182.7645
L181.3881 182.6931
" />
<path d="M181.3881 182.6931
L181.6738 182.6931
" />
<path d="M181.6738 182.6931
L181.8166 182.7645
" />
<path d="M181.8166 182.7645
L181.8881 182.9074
" />
<path d="M181.8881 182.9074
L181.8881 183.0502
" />
<path d="M181.8881 183.0502
L181.1738 183.1931
" />
<path d="M183.1023 183.6217
L182.9595 183.6931
" />
<path d="M182.9595 183.6931
L182.6738 183.6931
" />
<path d="M182.6738 183.6931
L182.5309 183.6217
" />
<path d="M182.5309 183.6217
L182.4595 183.4788
" />
<path d="M182.4595 183.4788
L182.4595 182.9074
" />
<path d="M182.4595 182.9074
L182.5309 182.7645
" />
<path d="M182.5309 182.7645
L182.6738 182.6931
" />
<path d="M182.6738 182.6931
L182.9595 182.6931
" />
<path d="M182.9595 182.6931
L183.1023 182.7645
" />
<path d="M183.1023 182.7645
L183.1738 182.9074
" />
<path d="M183.1738 182.9074
L183.1738 183.0502
" />
<path d="M183.1738 183.0502
L182.4595 183.1931
" />
<path d="M183.6023 182.6931
L184.1737 182.6931
" />
<path d="M183.8166 182.1931
L183.8166 183.4788
" />
<path d="M183.8166 183.4788
L183.8880 183.6217
" />
<path d="M183.8880 183.6217
L184.0309 183.6931
" />
<path d="M184.0309 183.6931
L184.1737 183.6931
" />
<path d="M184.6737 183.5502
L184.7451 183.6217
" />
<path d="M184.7451 183.6217
L184.6737 183.6931
" />
<path d="M184.6737 183.6931
L184.6023 183.6217
" />
<path d="M184.6023 183.6217
L184.6737 183.5502
" />
<path d="M184.6737 183.5502
L184.6737 183.6931
" />
<path d="M184.6737 182.7645
L184.7451 182.8359
" />
<path d="M184.7451 182.8359
L184.6737 182.9074
" />
<path d="M184.6737 182.9074
L184.6023 182.8359
" />
<path d="M184.6023 182.8359
L184.6737 182.7645
" />
<path d="M184.6737 182.7645
L184.6737 182.9074
" />
<path d="M187.6023 182.1217
L186.3166 184.0502
" />
</g></g>
<g style="fill:none; 
stroke:#840000; stroke-width:0.3000; stroke-opacity:1; 
stroke-linecap:round; stroke-linejoin:round;">
<text x="178.0022" y="180.7572"
textLength="0.9000" font-size="2.0000" lengthAdjust="spacingAndGlyphs"
text-anchor="start" opacity="0" stroke-opacity="0"></text>
<g class="stroked-text"><desc></desc>
</g></g>
<g style="fill:none; 
stroke:#840000; stroke-width:0.1524; stroke-opacity:1; 
stroke-linecap:round; stroke-linejoin:round;">
<text x="178.0022" y="177.7572"
textLength="0.4572" font-size="2.0000" lengthAdjust="spacingAndGlyphs"
text-anchor="start" opacity="0" stroke-opacity="0"></text>
<g class="stroked-text"><desc></desc>
</g><text x="178.0022" y="174.7572"
textLength="0.4572" font-size="2.0000" lengthAdjust="spacingAndGlyphs"
text-anchor="start" opacity="0" stroke-opacity="0"></text>
<g class="stroked-text"><desc></desc>
</g><text x="178.0022" y="171.7572"
textLength="0.4572" font-size="2.0000" lengthAdjust="spacingAndGlyphs"
text-anchor="start" opacity="0" stroke-opacity="0"></text>
<g class="stroked-text"><desc></desc>
</g><text x="178.0022" y="168.7572"
textLength="0.4572" font-size="2.0000" lengthAdjust="spacingAndGlyphs"
text-anchor="start" opacity="0" stroke-opacity="0"></text>
<g class="stroked-text"><desc></desc>
</g><path d="M197.0022 191.5072
L197.0022 194.5072
" />
<path d="M261.0022 191.5072
L261.0022 198.0072
" />
<path style="fill:none; 
stroke:#840000; stroke-width:0.1524; stroke-opacity:1; 
stroke-linecap:round; stroke-linejoin:round;fill:none"
d="M 138.4300,113.0300
138.4300,114.3000
139.7000,114.3000
138.4300,115.5700
137.1600,114.3000
138.4300,114.3000
" /> 
<path d="M138.4300 113.0300
L138.4300 113.0300
" />
</g>
<g style="fill:none; 
stroke:#006464; stroke-width:0.1524; stroke-opacity:1; 
stroke-linecap:round; stroke-linejoin:round;">
<text x="138.4300" y="118.7450"
textLength="4.0737" font-size="1.6933" lengthAdjust="spacingAndGlyphs"
text-anchor="middle" opacity="0" stroke-opacity="0">GND</text>
<g class="stroked-text"><desc>GND</desc>
<path d="M137.4624 117.4800
L137.3414 117.4195
" />
<path d="M137.3414 117.4195
L137.1600 117.4195
" />
<path d="M137.1600 117.4195
L136.9786 117.4800
" />
<path d="M136.9786 117.4800
L136.8576 117.6010
" />
<path d="M136.8576 117.6010
L136.7971 117.7219
" />
<path d="M136.7971 117.7219
L136.7367 117.9638
" />
<path d="M136.7367 117.9638
L136.7367 118.1452
" />
<path d="M136.7367 118.1452
L136.7971 118.3871
" />
<path d="M136.7971 118.3871
L136.8576 118.5081
" />
<path d="M136.8576 118.5081
L136.9786 118.6291
" />
<path d="M136.9786 118.6291
L137.1600 118.6895
" />
<path d="M137.1600 118.6895
L137.2809 118.6895
" />
<path d="M137.2809 118.6895
L137.4624 118.6291
" />
<path d="M137.4624 118.6291
L137.5228 118.5686
" />
<path d="M137.5228 118.5686
L137.5228 118.1452
" />
<path d="M137.5228 118.1452
L137.2809 118.1452
" />
<path d="M138.0671 118.6895
L138.0671 117.4195
" />
<path d="M138.0671 117.4195
L138.7928 118.6895
" />
<path d="M138.7928 118.6895
L138.7928 117.4195
" />
<path d="M139.3976 118.6895
L139.3976 117.4195
" />
<path d="M139.3976 117.4195
L139.7000 117.4195
" />
<path d="M139.7000 117.4195
L139.8814 117.4800
" />
<path d="M139.8814 117.4800
L140.0024 117.6010
" />
<path d="M140.0024 117.6010
L140.0629 117.7219
" />
<path d="M140.0629 117.7219
L140.1233 117.9638
" />
<path d="M140.1233 117.9638
L140.1233 118.1452
" />
<path d="M140.1233 118.1452
L140.0629 118.3871
" />
<path d="M140.0629 118.3871
L140.0024 118.5081
" />
<path d="M140.0024 118.5081
L139.8814 118.6291
" />
<path d="M139.8814 118.6291
L139.7000 118.6895
" />
<path d="M139.7000 118.6895
L139.3976 118.6895
" />
</g><path style="fill:none; 
stroke:#840000; stroke-width:0.1524; stroke-opacity:1; 
stroke-linecap:round; stroke-linejoin:round;fill:none"
d="M 137.6680,97.7900
138.4300,96.5200
" /> 
<path style="fill:none; 
stroke:#840000; stroke-width:0.1524; stroke-opacity:1; 
stroke-linecap:round; stroke-linejoin:round;fill:none"
d="M 138.4300,96.5200
139.1920,97.7900
" /> 
<path style="fill:none; 
stroke:#840000; stroke-width:0.1524; stroke-opacity:1; 
stroke-linecap:round; stroke-linejoin:round;fill:none"
d="M 138.4300,99.0600
138.4300,96.5200
" /> 
</g>
<g style="fill:none; 
stroke:#840000; stroke-width:0.1524; stroke-opacity:1; 
stroke-linecap:round; stroke-linejoin:round;">
<path d="M138.4300 99.0600
L138.4300 99.0600
" />
</g>
<g style="fill:none; 
stroke:#006464; stroke-width:0.1524; stroke-opacity:1; 
stroke-linecap:round; stroke-linejoin:round;">
<text x="138.4300" y="94.6150"
textLength="5.2832" font-size="1.6933" lengthAdjust="spacingAndGlyphs"
text-anchor="middle" opacity="0" stroke-opacity="0">+3V3</text>
<g class="stroked-text"><desc>+3V3</desc>
<path d="M136.1923 94.0757
L137.1600 94.0757
" />
<path d="M136.6761 94.5595
L136.6761 93.5919
" />
<path d="M137.6438 93.2895
L138.4300 93.2895
" />
<path d="M138.4300 93.2895
L138.0066 93.7733
" />
<path d="M138.0066 93.7733
L138.1881 93.7733
" />
<path d="M138.1881 93.7733
L138.3090 93.8338
" />
<path d="M138.3090 93.8338
L138.3695 93.8943
" />
<path d="M138.3695 93.8943
L138.4300 94.0152
" />
<path d="M138.4300 94.0152
L138.4300 94.3176
" />
<path d="M138.4300 94.3176
L138.3695 94.4386
" />
<path d="M138.3695 94.4386
L138.3090 94.4991
" />
<path d="M138.3090 94.4991
L138.1881 94.5595
" />
<path d="M138.1881 94.5595
L137.8252 94.5595
" />
<path d="M137.8252 94.5595
L137.7043 94.4991
" />
<path d="M137.7043 94.4991
L137.6438 94.4386
" />
<path d="M138.7928 93.2895
L139.2161 94.5595
" />
<path d="M139.2161 94.5595
L139.6395 93.2895
" />
<path d="M139.9419 93.2895
L140.7281 93.2895
" />
<path d="M140.7281 93.2895
L140.3047 93.7733
" />
<path d="M140.3047 93.7733
L140.4862 93.7733
" />
<path d="M140.4862 93.7733
L140.6071 93.8338
" />
<path d="M140.6071 93.8338
L140.6676 93.8943
" />
<path d="M140.6676 93.8943
L140.7281 94.0152
" />
<path d="M140.7281 94.0152
L140.7281 94.3176
" />
<path d="M140.7281 94.3176
L140.6676 94.4386
" />
<path d="M140.6676 94.4386
L140.6071 94.4991
" />
<path d="M140.6071 94.4991
L140.4862 94.5595
" />
<path d="M140.4862 94.5595
L140.1233 94.5595
" />
<path d="M140.1233 94.5595
L140.0024 94.4991
" />
<path d="M140.0024 94.4991
L139.9419 94.4386
" />
</g><path style="fill:none; 
stroke:#840000; stroke-width:0.2540; stroke-opacity:1; 
stroke-linecap:round; stroke-linejoin:round;fill:none"
d="M 139.4460,109.9820
137.4140,109.9820
" /> 
<path style="fill:none; 
stroke:#840000; stroke-width:0.1524; stroke-opacity:1; 
stroke-linecap:round; stroke-linejoin:round;fill:none"
d="M 137.6680,109.2200
137.1600,109.7280
137.1600,109.4740
137.1600,109.7280
137.4140,109.7280
" /> 
<path style="fill:none; 
stroke:#840000; stroke-width:0.1524; stroke-opacity:1; 
stroke-linecap:round; stroke-linejoin:round;fill:none"
d="M 137.1600,108.7120
136.6520,109.2200
136.6520,108.9660
136.6520,109.2200
136.9060,109.2200
" /> 
<path style="fill:none; 
stroke:#840000; stroke-width:0.2540; stroke-opacity:1; 
stroke-linecap:round; stroke-linejoin:round;fill:none"
d="M 139.4460,108.4580
138.4300,109.9820
137.4140,108.4580
Z" /> 
<path style="fill:none; 
stroke:#840000; stroke-width:0.1524; stroke-opacity:1; 
stroke-linecap:round; stroke-linejoin:round;fill:none"
d="M 138.4300,108.2040
138.4300,109.9820
" /> 
</g>
<g style="fill:none; 
stroke:#840000; stroke-width:0.1524; stroke-opacity:1; 
stroke-linecap:round; stroke-linejoin:round;">
<path d="M138.4300 109.9820
L138.4300 111.7600
" />
<path d="M138.4300 108.4580
L138.4300 106.6800
" />
</g>
<g style="fill:none; 
stroke:#006464; stroke-width:0.1524; stroke-opacity:1; 
stroke-linecap:round; stroke-linejoin:round;">
<text x="142.3209" y="108.5213"
textLength="2.6827" font-size="1.6933" lengthAdjust="spacingAndGlyphs"
text-anchor="middle" opacity="0" stroke-opacity="0">D2</text>
<g class="stroked-text"><desc>D2</desc>
<path d="M141.3835 108.4658
L141.3835 107.1958
" />
<path d="M141.3835 107.1958
L141.6859 107.1958
" />
<path d="M141.6859 107.1958
L141.8673 107.2563
" />
<path d="M141.8673 107.2563
L141.9883 107.3773
" />
<path d="M141.9883 107.3773
L142.0488 107.4982
" />
<path d="M142.0488 107.4982
L142.1092 107.7401
" />
<path d="M142.1092 107.7401
L142.1092 107.9215
" />
<path d="M142.1092 107.9215
L142.0488 108.1634
" />
<path d="M142.0488 108.1634
L141.9883 108.2844
" />
<path d="M141.9883 108.2844
L141.8673 108.4054
" />
<path d="M141.8673 108.4054
L141.6859 108.4658
" />
<path d="M141.6859 108.4658
L141.3835 108.4658
" />
<path d="M142.5931 107.3168
L142.6535 107.2563
" />
<path d="M142.6535 107.2563
L142.7745 107.1958
" />
<path d="M142.7745 107.1958
L143.0769 107.1958
" />
<path d="M143.0769 107.1958
L143.1978 107.2563
" />
<path d="M143.1978 107.2563
L143.2583 107.3168
" />
<path d="M143.2583 107.3168
L143.3188 107.4377
" />
<path d="M143.3188 107.4377
L143.3188 107.5587
" />
<path d="M143.3188 107.5587
L143.2583 107.7401
" />
<path d="M143.2583 107.7401
L142.5326 108.4658
" />
<path d="M142.5326 108.4658
L143.3188 108.4658
" />
</g><text x="145.9796" y="111.0613"
textLength="10.0001" font-size="1.6933" lengthAdjust="spacingAndGlyphs"
text-anchor="middle" opacity="0" stroke-opacity="0">LED_Small</text>
<g class="stroked-text"><desc>LED_Small</desc>
<path d="M141.9883 111.0058
L141.3835 111.0058
" />
<path d="M141.3835 111.0058
L141.3835 109.7358
" />
<path d="M142.4116 110.3406
L142.8350 110.3406
" />
<path d="M143.0164 111.0058
L142.4116 111.0058
" />
<path d="M142.4116 111.0058
L142.4116 109.7358
" />
<path d="M142.4116 109.7358
L143.0164 109.7358
" />
<path d="M143.5606 111.0058
L143.5606 109.7358
" />
<path d="M143.5606 109.7358
L143.8630 109.7358
" />
<path d="M143.8630 109.7358
L144.0444 109.7963
" />
<path d="M144.0444 109.7963
L144.1654 109.9173
" />
<path d="M144.1654 109.9173
L144.2259 110.0382
" />
<path d="M144.2259 110.0382
L144.2863 110.2801
" />
<path d="M144.2863 110.2801
L144.2863 110.4615
" />
<path d="M144.2863 110.4615
L144.2259 110.7034
" />
<path d="M144.2259 110.7034
L144.1654 110.8244
" />
<path d="M144.1654 110.8244
L144.0444 110.9454
" />
<path d="M144.0444 110.9454
L143.8630 111.0058
" />
<path d="M143.8630 111.0058
L143.5606 111.0058
" />
<path d="M144.5283 111.1268
L145.4959 111.1268
" />
<path d="M145.7378 110.9454
L145.9192 111.0058
" />
<path d="M145.9192 111.0058
L146.2216 111.0058
" />
<path d="M146.2216 111.0058
L146.3425 110.9454
" />
<path d="M146.3425 110.9454
L146.4030 110.8849
" />
<path d="M146.4030 110.8849
L146.4635 110.7639
" />
<path d="M146.4635 110.7639
L146.4635 110.6430
" />
<path d="M146.4635 110.6430
L146.4030 110.5220
" />
<path d="M146.4030 110.5220
L146.3425 110.4615
" />
<path d="M146.3425 110.4615
L146.2216 110.4011
" />
<path d="M146.2216 110.4011
L145.9797 110.3406
" />
<path d="M145.9797 110.3406
L145.8587 110.2801
" />
<path d="M145.8587 110.2801
L145.7982 110.2196
" />
<path d="M145.7982 110.2196
L145.7378 110.0987
" />
<path d="M145.7378 110.0987
L145.7378 109.9777
" />
<path d="M145.7378 109.9777
L145.7982 109.8568
" />
<path d="M145.7982 109.8568
L145.8587 109.7963
" />
<path d="M145.8587 109.7963
L145.9797 109.7358
" />
<path d="M145.9797 109.7358
L146.2820 109.7358
" />
<path d="M146.2820 109.7358
L146.4635 109.7963
" />
<path d="M147.0077 111.0058
L147.0077 110.1592
" />
<path d="M147.0077 110.2801
L147.0682 110.2196
" />
<path d="M147.0682 110.2196
L147.1892 110.1592
" />
<path d="M147.1892 110.1592
L147.3706 110.1592
" />
<path d="M147.3706 110.1592
L147.4915 110.2196
" />
<path d="M147.4915 110.2196
L147.5520 110.3406
" />
<path d="M147.5520 110.3406
L147.5520 111.0058
" />
<path d="M147.5520 110.3406
L147.6125 110.2196
" />
<path d="M147.6125 110.2196
L147.7334 110.1592
" />
<path d="M147.7334 110.1592
L147.9149 110.1592
" />
<path d="M147.9149 110.1592
L148.0358 110.2196
" />
<path d="M148.0358 110.2196
L148.0963 110.3406
" />
<path d="M148.0963 110.3406
L148.0963 111.0058
" />
<path d="M149.2453 111.0058
L149.2453 110.3406
" />
<path d="M149.2453 110.3406
L149.1848 110.2196
" />
<path d="M149.1848 110.2196
L149.0639 110.1592
" />
<path d="M149.0639 110.1592
L148.8220 110.1592
" />
<path d="M148.8220 110.1592
L148.7010 110.2196
" />
<path d="M149.2453 110.9454
L149.1244 111.0058
" />
<path d="M149.1244 111.0058
L148.8220 111.0058
" />
<path d="M148.8220 111.0058
L148.7010 110.9454
" />
<path d="M148.7010 110.9454
L148.6406 110.8244
" />
<path d="M148.6406 110.8244
L148.6406 110.7034
" />
<path d="M148.6406 110.7034
L148.7010 110.5825
" />
<path d="M148.7010 110.5825
L148.8220 110.5220
" />
<path d="M148.8220 110.5220
L149.1244 110.5220
" />
<path d="M149.1244 110.5220
L149.2453 110.4615
" />
<path d="M150.0315 111.0058
L149.9105 110.9454
" />
<path d="M149.9105 110.9454
L149.8500 110.8244
" />
<path d="M149.8500 110.8244
L149.8500 109.7358
" />
<path d="M150.6967 111.0058
L150.5757 110.9454
" />
<path d="M150.5757 110.9454
L150.5152 110.8244
" />
<path d="M150.5152 110.8244
L150.5152 109.7358
" />
</g></g>
<g style="fill:none; 
stroke:#840000; stroke-width:0.2032; stroke-opacity:1; 
stroke-linecap:round; stroke-linejoin:round;">
<rect x="137.668000" y="101.092000" width="1.524000" height="3.556000" rx="0.000000" />
</g>
<g style="fill:none; 
stroke:#840000; stroke-width:0.1524; stroke-opacity:1; 
stroke-linecap:round; stroke-linejoin:round;">
<path d="M138.4300 101.0920
L138.4300 100.3300
" />
<path d="M138.4300 104.6480
L138.4300 105.4100
" />
</g>
<g style="fill:none; 
stroke:#006464; stroke-width:0.1524; stroke-opacity:1; 
stroke-linecap:round; stroke-linejoin:round;">
<text x="142.0507" y="102.1079"
textLength="2.2376" font-size="1.3546" lengthAdjust="spacingAndGlyphs"
text-anchor="middle" opacity="0" stroke-opacity="0">R2</text>
<g class="stroked-text"><desc>R2</desc>
<path d="M141.8813 102.0619
L141.5427 101.5781
" />
<path d="M141.3008 102.0619
L141.3008 101.0459
" />
<path d="M141.3008 101.0459
L141.6878 101.0459
" />
<path d="M141.6878 101.0459
L141.7846 101.0943
" />
<path d="M141.7846 101.0943
L141.8329 101.1427
" />
<path d="M141.8329 101.1427
L141.8813 101.2395
" />
<path d="M141.8813 101.2395
L141.8813 101.3846
" />
<path d="M141.8813 101.3846
L141.8329 101.4814
" />
<path d="M141.8329 101.4814
L141.7846 101.5297
" />
<path d="M141.7846 101.5297
L141.6878 101.5781
" />
<path d="M141.6878 101.5781
L141.3008 101.5781
" />
<path d="M142.2684 101.1427
L142.3168 101.0943
" />
<path d="M142.3168 101.0943
L142.4135 101.0459
" />
<path d="M142.4135 101.0459
L142.6554 101.0459
" />
<path d="M142.6554 101.0459
L142.7522 101.0943
" />
<path d="M142.7522 101.0943
L142.8006 101.1427
" />
<path d="M142.8006 101.1427
L142.8489 101.2395
" />
<path d="M142.8489 101.2395
L142.8489 101.3362
" />
<path d="M142.8489 101.3362
L142.8006 101.4814
" />
<path d="M142.8006 101.4814
L142.2200 102.0619
" />
<path d="M142.2200 102.0619
L142.8489 102.0619
" />
</g><text x="144.8911" y="104.7749"
textLength="7.8230" font-size="1.6933" lengthAdjust="spacingAndGlyphs"
text-anchor="middle" opacity="0" stroke-opacity="0">R_Small</text>
<g class="stroked-text"><desc>R_Small</desc>
<path d="M142.1092 104.7194
L141.6859 104.1147
" />
<path d="M141.3835 104.7194
L141.3835 103.4494
" />
<path d="M141.3835 103.4494
L141.8673 103.4494
" />
<path d="M141.8673 103.4494
L141.9883 103.5099
" />
<path d="M141.9883 103.5099
L142.0488 103.5704
" />
<path d="M142.0488 103.5704
L142.1092 103.6913
" />
<path d="M142.1092 103.6913
L142.1092 103.8728
" />
<path d="M142.1092 103.8728
L142.0488 103.9937
" />
<path d="M142.0488 103.9937
L141.9883 104.0542
" />
<path d="M141.9883 104.0542
L141.8673 104.1147
" />
<path d="M141.8673 104.1147
L141.3835 104.1147
" />
<path d="M142.3512 104.8404
L143.3188 104.8404
" />
<path d="M143.5607 104.6590
L143.7421 104.7194
" />
<path d="M143.7421 104.7194
L144.0445 104.7194
" />
<path d="M144.0445 104.7194
L144.1654 104.6590
" />
<path d="M144.1654 104.6590
L144.2259 104.5985
" />
<path d="M144.2259 104.5985
L144.2864 104.4775
" />
<path d="M144.2864 104.4775
L144.2864 104.3566
" />
<path d="M144.2864 104.3566
L144.2259 104.2356
" />
<path d="M144.2259 104.2356
L144.1654 104.1751
" />
<path d="M144.1654 104.1751
L144.0445 104.1147
" />
<path d="M144.0445 104.1147
L143.8026 104.0542
" />
<path d="M143.8026 104.0542
L143.6816 103.9937
" />
<path d="M143.6816 103.9937
L143.6211 103.9332
" />
<path d="M143.6211 103.9332
L143.5607 103.8123
" />
<path d="M143.5607 103.8123
L143.5607 103.6913
" />
<path d="M143.5607 103.6913
L143.6211 103.5704
" />
<path d="M143.6211 103.5704
L143.6816 103.5099
" />
<path d="M143.6816 103.5099
L143.8026 103.4494
" />
<path d="M143.8026 103.4494
L144.1049 103.4494
" />
<path d="M144.1049 103.4494
L144.2864 103.5099
" />
<path d="M144.8306 104.7194
L144.8306 103.8728
" />
<path d="M144.8306 103.9937
L144.8911 103.9332
" />
<path d="M144.8911 103.9332
L145.0121 103.8728
" />
<path d="M145.0121 103.8728
L145.1935 103.8728
" />
<path d="M145.1935 103.8728
L145.3144 103.9332
" />
<path d="M145.3144 103.9332
L145.3749 104.0542
" />
<path d="M145.3749 104.0542
L145.3749 104.7194
" />
<path d="M145.3749 104.0542
L145.4354 103.9332
" />
<path d="M145.4354 103.9332
L145.5563 103.8728
" />
<path d="M145.5563 103.8728
L145.7378 103.8728
" />
<path d="M145.7378 103.8728
L145.8587 103.9332
" />
<path d="M145.8587 103.9332
L145.9192 104.0542
" />
<path d="M145.9192 104.0542
L145.9192 104.7194
" />
<path d="M147.0682 104.7194
L147.0682 104.0542
" />
<path d="M147.0682 104.0542
L147.0077 103.9332
" />
<path d="M147.0077 103.9332
L146.8868 103.8728
" />
<path d="M146.8868 103.8728
L146.6449 103.8728
" />
<path d="M146.6449 103.8728
L146.5239 103.9332
" />
<path d="M147.0682 104.6590
L146.9473 104.7194
" />
<path d="M146.9473 104.7194
L146.6449 104.7194
" />
<path d="M146.6449 104.7194
L146.5239 104.6590
" />
<path d="M146.5239 104.6590
L146.4635 104.5380
" />
<path d="M146.4635 104.5380
L146.4635 104.4170
" />
<path d="M146.4635 104.4170
L146.5239 104.2961
" />
<path d="M146.5239 104.2961
L146.6449 104.2356
" />
<path d="M146.6449 104.2356
L146.9473 104.2356
" />
<path d="M146.9473 104.2356
L147.0682 104.1751
" />
<path d="M147.8544 104.7194
L147.7334 104.6590
" />
<path d="M147.7334 104.6590
L147.6729 104.5380
" />
<path d="M147.6729 104.5380
L147.6729 103.4494
" />
<path d="M148.5196 104.7194
L148.3986 104.6590
" />
<path d="M148.3986 104.6590
L148.3381 104.5380
" />
<path d="M148.3381 104.5380
L148.3381 103.4494
" />
</g><path style="fill:none; 
stroke:#840000; stroke-width:0.2540; stroke-opacity:1; 
stroke-linecap:round; stroke-linejoin:round;fill:none"
d="M 116.5860,109.9820
114.5540,109.9820
" /> 
<path style="fill:none; 
stroke:#840000; stroke-width:0.1524; stroke-opacity:1; 
stroke-linecap:round; stroke-linejoin:round;fill:none"
d="M 114.8080,109.2200
114.3000,109.7280
114.3000,109.4740
114.3000,109.7280
114.5540,109.7280
" /> 
<path style="fill:none; 
stroke:#840000; stroke-width:0.1524; stroke-opacity:1; 
stroke-linecap:round; stroke-linejoin:round;fill:none"
d="M 114.3000,108.7120
113.7920,109.2200
113.7920,108.9660
113.7920,109.2200
114.0460,109.2200
" /> 
<path style="fill:none; 
stroke:#840000; stroke-width:0.2540; stroke-opacity:1; 
stroke-linecap:round; stroke-linejoin:round;fill:none"
d="M 116.5860,108.4580
115.5700,109.9820
114.5540,108.4580
Z" /> 
<path style="fill:none; 
stroke:#840000; stroke-width:0.1524; stroke-opacity:1; 
stroke-linecap:round; stroke-linejoin:round;fill:none"
d="M 115.5700,108.2040
115.5700,109.9820
" /> 
</g>
<g style="fill:none; 
stroke:#840000; stroke-width:0.1524; stroke-opacity:1; 
stroke-linecap:round; stroke-linejoin:round;">
<path d="M115.5700 109.9820
L115.5700 111.7600
" />
<path d="M115.5700 108.4580
L115.5700 106.6800
" />
</g>
<g style="fill:none; 
stroke:#006464; stroke-width:0.1524; stroke-opacity:1; 
stroke-linecap:round; stroke-linejoin:round;">
<text x="119.4609" y="108.5213"
textLength="2.6827" font-size="1.6933" lengthAdjust="spacingAndGlyphs"
text-anchor="middle" opacity="0" stroke-opacity="0">D1</text>
<g class="stroked-text"><desc>D1</desc>
<path d="M118.5235 108.4658
L118.5235 107.1958
" />
<path d="M118.5235 107.1958
L118.8259 107.1958
" />
<path d="M118.8259 107.1958
L119.0073 107.2563
" />
<path d="M119.0073 107.2563
L119.1283 107.3773
" />
<path d="M119.1283 107.3773
L119.1888 107.4982
" />
<path d="M119.1888 107.4982
L119.2492 107.7401
" />
<path d="M119.2492 107.7401
L119.2492 107.9215
" />
<path d="M119.2492 107.9215
L119.1888 108.1634
" />
<path d="M119.1888 108.1634
L119.1283 108.2844
" />
<path d="M119.1283 108.2844
L119.0073 108.4054
" />
<path d="M119.0073 108.4054
L118.8259 108.4658
" />
<path d="M118.8259 108.4658
L118.5235 108.4658
" />
<path d="M120.4588 108.4658
L119.7331 108.4658
" />
<path d="M120.0959 108.4658
L120.0959 107.1958
" />
<path d="M120.0959 107.1958
L119.9750 107.3773
" />
<path d="M119.9750 107.3773
L119.8540 107.4982
" />
<path d="M119.8540 107.4982
L119.7331 107.5587
" />
</g><text x="123.1196" y="111.0613"
textLength="10.0001" font-size="1.6933" lengthAdjust="spacingAndGlyphs"
text-anchor="middle" opacity="0" stroke-opacity="0">LED_Small</text>
<g class="stroked-text"><desc>LED_Small</desc>
<path d="M119.1283 111.0058
L118.5235 111.0058
" />
<path d="M118.5235 111.0058
L118.5235 109.7358
" />
<path d="M119.5516 110.3406
L119.9750 110.3406
" />
<path d="M120.1564 111.0058
L119.5516 111.0058
" />
<path d="M119.5516 111.0058
L119.5516 109.7358
" />
<path d="M119.5516 109.7358
L120.1564 109.7358
" />
<path d="M120.7006 111.0058
L120.7006 109.7358
" />
<path d="M120.7006 109.7358
L121.0030 109.7358
" />
<path d="M121.0030 109.7358
L121.1844 109.7963
" />
<path d="M121.1844 109.7963
L121.3054 109.9173
" />
<path d="M121.3054 109.9173
L121.3659 110.0382
" />
<path d="M121.3659 110.0382
L121.4263 110.2801
" />
<path d="M121.4263 110.2801
L121.4263 110.4615
" />
<path d="M121.4263 110.4615
L121.3659 110.7034
" />
<path d="M121.3659 110.7034
L121.3054 110.8244
" />
<path d="M121.3054 110.8244
L121.1844 110.9454
" />
<path d="M121.1844 110.9454
L121.0030 111.0058
" />
<path d="M121.0030 111.0058
L120.7006 111.0058
" />
<path d="M121.6683 111.1268
L122.6359 111.1268
" />
<path d="M122.8778 110.9454
L123.0592 111.0058
" />
<path d="M123.0592 111.0058
L123.3616 111.0058
" />
<path d="M123.3616 111.0058
L123.4825 110.9454
" />
<path d="M123.4825 110.9454
L123.5430 110.8849
" />
<path d="M123.5430 110.8849
L123.6035 110.7639
" />
<path d="M123.6035 110.7639
L123.6035 110.6430
" />
<path d="M123.6035 110.6430
L123.5430 110.5220
" />
<path d="M123.5430 110.5220
L123.4825 110.4615
" />
<path d="M123.4825 110.4615
L123.3616 110.4011
" />
<path d="M123.3616 110.4011
L123.1197 110.3406
" />
<path d="M123.1197 110.3406
L122.9987 110.2801
" />
<path d="M122.9987 110.2801
L122.9382 110.2196
" />
<path d="M122.9382 110.2196
L122.8778 110.0987
" />
<path d="M122.8778 110.0987
L122.8778 109.9777
" />
<path d="M122.8778 109.9777
L122.9382 109.8568
" />
<path d="M122.9382 109.8568
L122.9987 109.7963
" />
<path d="M122.9987 109.7963
L123.1197 109.7358
" />
<path d="M123.1197 109.7358
L123.4220 109.7358
" />
<path d="M123.4220 109.7358
L123.6035 109.7963
" />
<path d="M124.1477 111.0058
L124.1477 110.1592
" />
<path d="M124.1477 110.2801
L124.2082 110.2196
" />
<path d="M124.2082 110.2196
L124.3292 110.1592
" />
<path d="M124.3292 110.1592
L124.5106 110.1592
" />
<path d="M124.5106 110.1592
L124.6315 110.2196
" />
<path d="M124.6315 110.2196
L124.6920 110.3406
" />
<path d="M124.6920 110.3406
L124.6920 111.0058
" />
<path d="M124.6920 110.3406
L124.7525 110.2196
" />
<path d="M124.7525 110.2196
L124.8734 110.1592
" />
<path d="M124.8734 110.1592
L125.0549 110.1592
" />
<path d="M125.0549 110.1592
L125.1758 110.2196
" />
<path d="M125.1758 110.2196
L125.2363 110.3406
" />
<path d="M125.2363 110.3406
L125.2363 111.0058
" />
<path d="M126.3853 111.0058
L126.3853 110.3406
" />
<path d="M126.3853 110.3406
L126.3248 110.2196
" />
<path d="M126.3248 110.2196
L126.2039 110.1592
" />
<path d="M126.2039 110.1592
L125.9620 110.1592
" />
<path d="M125.9620 110.1592
L125.8410 110.2196
" />
<path d="M126.3853 110.9454
L126.2644 111.0058
" />
<path d="M126.2644 111.0058
L125.9620 111.0058
" />
<path d="M125.9620 111.0058
L125.8410 110.9454
" />
<path d="M125.8410 110.9454
L125.7806 110.8244
" />
<path d="M125.7806 110.8244
L125.7806 110.7034
" />
<path d="M125.7806 110.7034
L125.8410 110.5825
" />
<path d="M125.8410 110.5825
L125.9620 110.5220
" />
<path d="M125.9620 110.5220
L126.2644 110.5220
" />
<path d="M126.2644 110.5220
L126.3853 110.4615
" />
<path d="M127.1715 111.0058
L127.0505 110.9454
" />
<path d="M127.0505 110.9454
L126.9900 110.8244
" />
<path d="M126.9900 110.8244
L126.9900 109.7358
" />
<path d="M127.8367 111.0058
L127.7157 110.9454
" />
<path d="M127.7157 110.9454
L127.6552 110.8244
" />
<path d="M127.6552 110.8244
L127.6552 109.7358
" />
</g></g>
<g style="fill:none; 
stroke:#840000; stroke-width:0.2032; stroke-opacity:1; 
stroke-linecap:round; stroke-linejoin:round;">
<rect x="114.808000" y="101.092000" width="1.524000" height="3.556000" rx="0.000000" />
</g>
<g style="fill:none; 
stroke:#840000; stroke-width:0.1524; stroke-opacity:1; 
stroke-linecap:round; stroke-linejoin:round;">
<path d="M115.5700 101.0920
L115.5700 100.3300
" />
<path d="M115.5700 104.6480
L115.5700 105.4100
" />
</g>
<g style="fill:none; 
stroke:#006464; stroke-width:0.1524; stroke-opacity:1; 
stroke-linecap:round; stroke-linejoin:round;">
<text x="119.1907" y="102.1079"
textLength="2.2376" font-size="1.3546" lengthAdjust="spacingAndGlyphs"
text-anchor="middle" opacity="0" stroke-opacity="0">R1</text>
<g class="stroked-text"><desc>R1</desc>
<path d="M119.0213 102.0619
L118.6827 101.5781
" />
<path d="M118.4408 102.0619
L118.4408 101.0459
" />
<path d="M118.4408 101.0459
L118.8278 101.0459
" />
<path d="M118.8278 101.0459
L118.9246 101.0943
" />
<path d="M118.9246 101.0943
L118.9729 101.1427
" />
<path d="M118.9729 101.1427
L119.0213 101.2395
" />
<path d="M119.0213 101.2395
L119.0213 101.3846
" />
<path d="M119.0213 101.3846
L118.9729 101.4814
" />
<path d="M118.9729 101.4814
L118.9246 101.5297
" />
<path d="M118.9246 101.5297
L118.8278 101.5781
" />
<path d="M118.8278 101.5781
L118.4408 101.5781
" />
<path d="M119.9889 102.0619
L119.4084 102.0619
" />
<path d="M119.6987 102.0619
L119.6987 101.0459
" />
<path d="M119.6987 101.0459
L119.6019 101.1911
" />
<path d="M119.6019 101.1911
L119.5051 101.2878
" />
<path d="M119.5051 101.2878
L119.4084 101.3362
" />
</g><text x="122.0311" y="104.7749"
textLength="7.8230" font-size="1.6933" lengthAdjust="spacingAndGlyphs"
text-anchor="middle" opacity="0" stroke-opacity="0">R_Small</text>
<g class="stroked-text"><desc>R_Small</desc>
<path d="M119.2492 104.7194
L118.8259 104.1147
" />
<path d="M118.5235 104.7194
L118.5235 103.4494
" />
<path d="M118.5235 103.4494
L119.0073 103.4494
" />
<path d="M119.0073 103.4494
L119.1283 103.5099
" />
<path d="M119.1283 103.5099
L119.1888 103.5704
" />
<path d="M119.1888 103.5704
L119.2492 103.6913
" />
<path d="M119.2492 103.6913
L119.2492 103.8728
" />
<path d="M119.2492 103.8728
L119.1888 103.9937
" />
<path d="M119.1888 103.9937
L119.1283 104.0542
" />
<path d="M119.1283 104.0542
L119.0073 104.1147
" />
<path d="M119.0073 104.1147
L118.5235 104.1147
" />
<path d="M119.4912 104.8404
L120.4588 104.8404
" />
<path d="M120.7007 104.6590
L120.8821 104.7194
" />
<path d="M120.8821 104.7194
L121.1845 104.7194
" />
<path d="M121.1845 104.7194
L121.3054 104.6590
" />
<path d="M121.3054 104.6590
L121.3659 104.5985
" />
<path d="M121.3659 104.5985
L121.4264 104.4775
" />
<path d="M121.4264 104.4775
L121.4264 104.3566
" />
<path d="M121.4264 104.3566
L121.3659 104.2356
" />
<path d="M121.3659 104.2356
L121.3054 104.1751
" />
<path d="M121.3054 104.1751
L121.1845 104.1147
" />
<path d="M121.1845 104.1147
L120.9426 104.0542
" />
<path d="M120.9426 104.0542
L120.8216 103.9937
" />
<path d="M120.8216 103.9937
L120.7611 103.9332
" />
<path d="M120.7611 103.9332
L120.7007 103.8123
" />
<path d="M120.7007 103.8123
L120.7007 103.6913
" />
<path d="M120.7007 103.6913
L120.7611 103.5704
" />
<path d="M120.7611 103.5704
L120.8216 103.5099
" />
<path d="M120.8216 103.5099
L120.9426 103.4494
" />
<path d="M120.9426 103.4494
L121.2449 103.4494
" />
<path d="M121.2449 103.4494
L121.4264 103.5099
" />
<path d="M121.9706 104.7194
L121.9706 103.8728
" />
<path d="M121.9706 103.9937
L122.0311 103.9332
" />
<path d="M122.0311 103.9332
L122.1521 103.8728
" />
<path d="M122.1521 103.8728
L122.3335 103.8728
" />
<path d="M122.3335 103.8728
L122.4544 103.9332
" />
<path d="M122.4544 103.9332
L122.5149 104.0542
" />
<path d="M122.5149 104.0542
L122.5149 104.7194
" />
<path d="M122.5149 104.0542
L122.5754 103.9332
" />
<path d="M122.5754 103.9332
L122.6963 103.8728
" />
<path d="M122.6963 103.8728
L122.8778 103.8728
" />
<path d="M122.8778 103.8728
L122.9987 103.9332
" />
<path d="M122.9987 103.9332
L123.0592 104.0542
" />
<path d="M123.0592 104.0542
L123.0592 104.7194
" />
<path d="M124.2082 104.7194
L124.2082 104.0542
" />
<path d="M124.2082 104.0542
L124.1477 103.9332
" />
<path d="M124.1477 103.9332
L124.0268 103.8728
" />
<path d="M124.0268 103.8728
L123.7849 103.8728
" />
<path d="M123.7849 103.8728
L123.6639 103.9332
" />
<path d="M124.2082 104.6590
L124.0873 104.7194
" />
<path d="M124.0873 104.7194
L123.7849 104.7194
" />
<path d="M123.7849 104.7194
L123.6639 104.6590
" />
<path d="M123.6639 104.6590
L123.6035 104.5380
" />
<path d="M123.6035 104.5380
L123.6035 104.4170
" />
<path d="M123.6035 104.4170
L123.6639 104.2961
" />
<path d="M123.6639 104.2961
L123.7849 104.2356
" />
<path d="M123.7849 104.2356
L124.0873 104.2356
" />
<path d="M124.0873 104.2356
L124.2082 104.1751
" />
<path d="M124.9944 104.7194
L124.8734 104.6590
" />
<path d="M124.8734 104.6590
L124.8129 104.5380
" />
<path d="M124.8129 104.5380
L124.8129 103.4494
" />
<path d="M125.6596 104.7194
L125.5386 104.6590
" />
<path d="M125.5386 104.6590
L125.4781 104.5380
" />
<path d="M125.4781 104.5380
L125.4781 103.4494
" />
</g><path style="fill:none; 
stroke:#840000; stroke-width:0.1524; stroke-opacity:1; 
stroke-linecap:round; stroke-linejoin:round;fill:none"
d="M 115.5700,113.0300
115.5700,114.3000
116.8400,114.3000
115.5700,115.5700
114.3000,114.3000
115.5700,114.3000
" /> 
</g>
<g style="fill:none; 
stroke:#840000; stroke-width:0.1524; stroke-opacity:1; 
stroke-linecap:round; stroke-linejoin:round;">
<path d="M115.5700 113.0300
L115.5700 113.0300
" />
</g>
<g style="fill:none; 
stroke:#006464; stroke-width:0.1524; stroke-opacity:1; 
stroke-linecap:round; stroke-linejoin:round;">
<text x="115.5700" y="118.7450"
textLength="4.0737" font-size="1.6933" lengthAdjust="spacingAndGlyphs"
text-anchor="middle" opacity="0" stroke-opacity="0">GND</text>
<g class="stroked-text"><desc>GND</desc>
<path d="M114.6024 117.4800
L114.4814 117.4195
" />
<path d="M114.4814 117.4195
L114.3000 117.4195
" />
<path d="M114.3000 117.4195
L114.1186 117.4800
" />
<path d="M114.1186 117.4800
L113.9976 117.6010
" />
<path d="M113.9976 117.6010
L113.9371 117.7219
" />
<path d="M113.9371 117.7219
L113.8767 117.9638
" />
<path d="M113.8767 117.9638
L113.8767 118.1452
" />
<path d="M113.8767 118.1452
L113.9371 118.3871
" />
<path d="M113.9371 118.3871
L113.9976 118.5081
" />
<path d="M113.9976 118.5081
L114.1186 118.6291
" />
<path d="M114.1186 118.6291
L114.3000 118.6895
" />
<path d="M114.3000 118.6895
L114.4209 118.6895
" />
<path d="M114.4209 118.6895
L114.6024 118.6291
" />
<path d="M114.6024 118.6291
L114.6628 118.5686
" />
<path d="M114.6628 118.5686
L114.6628 118.1452
" />
<path d="M114.6628 118.1452
L114.4209 118.1452
" />
<path d="M115.2071 118.6895
L115.2071 117.4195
" />
<path d="M115.2071 117.4195
L115.9328 118.6895
" />
<path d="M115.9328 118.6895
L115.9328 117.4195
" />
<path d="M116.5376 118.6895
L116.5376 117.4195
" />
<path d="M116.5376 117.4195
L116.8400 117.4195
" />
<path d="M116.8400 117.4195
L117.0214 117.4800
" />
<path d="M117.0214 117.4800
L117.1424 117.6010
" />
<path d="M117.1424 117.6010
L117.2029 117.7219
" />
<path d="M117.2029 117.7219
L117.2633 117.9638
" />
<path d="M117.2633 117.9638
L117.2633 118.1452
" />
<path d="M117.2633 118.1452
L117.2029 118.3871
" />
<path d="M117.2029 118.3871
L117.1424 118.5081
" />
<path d="M117.1424 118.5081
L117.0214 118.6291
" />
<path d="M117.0214 118.6291
L116.8400 118.6895
" />
<path d="M116.8400 118.6895
L116.5376 118.6895
" />
</g><path style="fill:none; 
stroke:#840000; stroke-width:0.1524; stroke-opacity:1; 
stroke-linecap:round; stroke-linejoin:round;fill:none"
d="M 114.8080,97.7900
115.5700,96.5200
" /> 
<path style="fill:none; 
stroke:#840000; stroke-width:0.1524; stroke-opacity:1; 
stroke-linecap:round; stroke-linejoin:round;fill:none"
d="M 115.5700,96.5200
116.3320,97.7900
" /> 
<path style="fill:none; 
stroke:#840000; stroke-width:0.1524; stroke-opacity:1; 
stroke-linecap:round; stroke-linejoin:round;fill:none"
d="M 115.5700,99.0600
115.5700,96.5200
" /> 
</g>
<g style="fill:none; 
stroke:#840000; stroke-width:0.1524; stroke-opacity:1; 
stroke-linecap:round; stroke-linejoin:round;">
<path d="M115.5700 99.0600
L115.5700 99.0600
" />
</g>
<g style="fill:none; 
stroke:#006464; stroke-width:0.1524; stroke-opacity:1; 
stroke-linecap:round; stroke-linejoin:round;">
<text x="115.5700" y="94.6150"
textLength="5.2832" font-size="1.6933" lengthAdjust="spacingAndGlyphs"
text-anchor="middle" opacity="0" stroke-opacity="0">+3V3</text>
<g class="stroked-text"><desc>+3V3</desc>
<path d="M113.3323 94.0757
L114.3000 94.0757
" />
<path d="M113.8161 94.5595
L113.8161 93.5919
" />
<path d="M114.7838 93.2895
L115.5700 93.2895
" />
<path d="M115.5700 93.2895
L115.1466 93.7733
" />
<path d="M115.1466 93.7733
L115.3281 93.7733
" />
<path d="M115.3281 93.7733
L115.4490 93.8338
" />
<path d="M115.4490 93.8338
L115.5095 93.8943
" />
<path d="M115.5095 93.8943
L115.5700 94.0152
" />
<path d="M115.5700 94.0152
L115.5700 94.3176
" />
<path d="M115.5700 94.3176
L115.5095 94.4386
" />
<path d="M115.5095 94.4386
L115.4490 94.4991
" />
<path d="M115.4490 94.4991
L115.3281 94.5595
" />
<path d="M115.3281 94.5595
L114.9652 94.5595
" />
<path d="M114.9652 94.5595
L114.8443 94.4991
" />
<path d="M114.8443 94.4991
L114.7838 94.4386
" />
<path d="M115.9328 93.2895
L116.3561 94.5595
" />
<path d="M116.3561 94.5595
L116.7795 93.2895
" />
<path d="M117.0819 93.2895
L117.8681 93.2895
" />
<path d="M117.8681 93.2895
L117.4447 93.7733
" />
<path d="M117.4447 93.7733
L117.6262 93.7733
" />
<path d="M117.6262 93.7733
L117.7471 93.8338
" />
<path d="M117.7471 93.8338
L117.8076 93.8943
" />
<path d="M117.8076 93.8943
L117.8681 94.0152
" />
<path d="M117.8681 94.0152
L117.8681 94.3176
" />
<path d="M117.8681 94.3176
L117.8076 94.4386
" />
<path d="M117.8076 94.4386
L117.7471 94.4991
" />
<path d="M117.7471 94.4991
L117.6262 94.5595
" />
<path d="M117.6262 94.5595
L117.2633 94.5595
" />
<path d="M117.2633 94.5595
L117.1424 94.4991
" />
<path d="M117.1424 94.4991
L117.0819 94.4386
" />
</g></g>
<g style="fill:none; 
stroke:#009600; stroke-width:0.1524; stroke-opacity:1; 
stroke-linecap:round; stroke-linejoin:round;">
<path d="M138.4300 99.0600
L138.4300 100.3300
" />
<path d="M138.4300 111.7600
L138.4300 113.0300
" />
<path d="M138.4300 105.4100
L138.4300 106.6800
" />
<path d="M115.5700 111.7600
L115.5700 113.0300
" />
<path d="M115.5700 99.0600
L115.5700 100.3300
" />
<path d="M115.5700 105.4100
L115.5700 106.6800
" />
</g> 
</svg>
